<svg xmlns="http://www.w3.org/2000/svg" xmlns:xlink="http://www.w3.org/1999/xlink" xmlns:inkscape="http://www.inkscape.org/namespaces/inkscape" version="1.1" width="1134" height="1134" viewBox="0 0 1134 1134">
<defs>
<clipPath id="clip_1">
<path transform="matrix(1,0,0,-1,0,1134)" d="M0 1134H1134V0H0Z"/>
</clipPath>
<clipPath id="clip_2">
<path transform="matrix(1,0,0,-1,0,1134)" d="M0 0H1134V1134H0Z"/>
</clipPath>
<clipPath id="clip_3">
<path transform="matrix(1,0,0,-1,0,1134)" d="M0 0H1134V1134H0Z"/>
</clipPath>
<path id="font_4_26" d="M.08691406 0V.4501953H.009277344V.5185547H.08691406V.57373049C.08691406 .6085612 .09000651 .6344401 .096191409 .6513672 .104654949 .6741536 .11954752 .69262698 .14086914 .7067871 .16219075 .72094729 .1920573 .72802737 .23046875 .72802737 .25520835 .72802737 .2825521 .72509768 .3125 .7192383L.2993164 .6425781C.28108726 .6458333 .26383464 .64746096 .2475586 .64746096 .22086589 .64746096 .20198567 .64176437 .19091797 .6303711 .17985027 .61897787 .1743164 .59765627 .1743164 .56640627V.5185547H.27539063V.4501953H.1743164V0H.08691406Z"/>
<path id="font_4_25" d="M.42089845 .16673279 .51171877 .15550232C.49739585 .1025238 .47086589 .061406454 .4321289 .03215027 .39339195 .002904256 .34391276-.01171875 .2836914-.01171875 .20784505-.01171875 .14770508 .01163737 .103271488 .05834961 .05883789 .10506185 .036621095 .17057292 .036621095 .2548828 .036621095 .3421224 .05908203 .40983073 .104003909 .4580078 .14892578 .5061849 .20719402 .53027346 .2788086 .53027346 .34814454 .53027346 .40478517 .5066325 .44873048 .4593506 .49267579 .41207887 .51464846 .3455658 .51464846 .2598114 .51464846 .2545929 .51448568 .24676514 .51416018 .23632813H.1274414C.13069661 .17951457 .14680989 .13601177 .17578125 .1058197 .20475261 .07563782 .24088542 .060546876 .2841797 .060546876 .31640626 .060546876 .34391276 .068984989 .36669923 .085861209 .3894857 .1027476 .4075521 .12970479 .42089845 .16673279M.13232422 .30859376H.421875C.41796876 .35235597 .40690104 .3851776 .38867188 .40705873 .3606771 .44102479 .3243815 .4580078 .27978517 .4580078 .23942058 .4580078 .20548503 .4444529 .17797852 .41734315 .150472 .39024354 .1352539 .35399375 .13232422 .30859376Z"/>
<path id="font_4_39" d="M.2578125 .07861328 .2705078 .0009765625C.24576824-.004231771 .22363281-.0068359377 .20410156-.0068359377 .17220052-.0068359377 .14746094-.0017903646 .12988281 .008300781 .11230469 .018391928 .0999349 .031656904 .09277344 .048095704 .08561198 .06453451 .08203125 .099121097 .08203125 .15185547V.4501953H.017578125V.5185547H.08203125V.64697268L.1694336 .69970706V.5185547H.2578125V.4501953H.1694336V.14697266C.1694336 .121907558 .17097982 .10579427 .17407227 .09863281 .17716472 .09147135 .18221028 .08577474 .18920899 .08154297 .19620769 .077311199 .20621746 .07519531 .21923828 .07519531 .2290039 .07519531 .24186199 .07633463 .2578125 .07861328Z"/>
<path id="font_4_23" d="M.40429688 .1899414 .49072267 .17871094C.48128257 .119140628 .45711265 .072509769 .4182129 .03881836 .37931315 .005126953 .33154298-.01171875 .27490235-.01171875 .2039388-.01171875 .14689128 .011474609 .103759769 .057861329 .060628255 .10424805 .0390625 .17073567 .0390625 .25732423 .0390625 .3133138 .048339845 .3623047 .06689453 .40429688 .08544922 .44628907 .11368815 .4777832 .15161133 .4987793 .1895345 .5197754 .23079427 .53027346 .27539063 .53027346 .33170573 .53027346 .37776695 .5160319 .41357423 .48754884 .4493815 .45906578 .47233073 .41861979 .48242188 .36621095L.39697267 .35302735C.38883464 .38785807 .37443034 .4140625 .35375978 .43164063 .3330892 .44921876 .30810548 .4580078 .2788086 .4580078 .23453777 .4580078 .1985677 .44213868 .17089844 .4104004 .14322917 .3786621 .12939453 .32845054 .12939453 .25976563 .12939453 .19010417 .14274089 .13948567 .1694336 .107910159 .1961263 .07633463 .23095703 .060546876 .27392579 .060546876 .308431 .060546876 .3372396 .071126308 .36035157 .092285159 .38346354 .11344401 .39811198 .1459961 .40429688 .1899414Z"/>
<path id="font_4_28" d="M.06542969 0V.7158203H.15332031V.45898438C.1942749 .50651046 .24595642 .53027346 .30836488 .53027346 .34672547 .53027346 .3800405 .5227051 .40830995 .50756838 .43658958 .49243165 .45682273 .47151695 .4690094 .44482423 .48120628 .4181315 .4873047 .37939454 .4873047 .32861329V0H.39941407V.32861329C.39941407 .3725586 .38990785 .40454103 .3708954 .42456056 .3518931 .44458009 .3250122 .45458985 .2902527 .45458985 .26426188 .45458985 .23981221 .4478353 .21690369 .43432618 .19400533 .42081706 .17768352 .4025065 .16793823 .37939454 .15819295 .35628257 .15332031 .3243815 .15332031 .2836914V0H.06542969Z"/>
<path id="font_4_8" d="M.4116211 .28027345V.3642578L.71484377 .3647461V.09954834C.66829428 .06245931 .62027999 .034561159 .5708008 .015853882 .5213216-.0028533936 .47054038-.012207031 .41845704-.012207031 .34814454-.012207031 .28426109 .0028381348 .22680664 .032928468 .16935222 .0630188 .12597656 .106526698 .09667969 .16345215 .06738281 .22038777 .052734376 .28398643 .052734376 .35424806 .052734376 .4238688 .06730143 .48885093 .09643555 .54919436 .12556966 .6095378 .16748047 .6543477 .22216797 .68362429 .27685548 .7129008 .33984376 .72753909 .4111328 .72753909 .46289063 .72753909 .50968429 .7191569 .5515137 .7023926 .5933431 .68562826 .62613937 .66227218 .64990237 .6323242 .67366537 .6023763 .69173178 .5633138 .70410159 .5151367L.61865237 .49169923C.60791018 .52815756 .5945638 .5568034 .5786133 .5776367 .5626628 .59847006 .5398763 .615153 .5102539 .62768557 .4806315 .6402181 .4477539 .6464844 .4116211 .6464844 .3683268 .6464844 .33089195 .63989767 .2993164 .62672427 .26774089 .61355087 .24226888 .5962321 .22290039 .57476809 .2035319 .553304 .18847656 .5297241 .17773438 .5040283 .1595052 .4597982 .15039063 .41182456 .15039063 .36010743 .15039063 .2963562 .16137696 .24301656 .18334961 .2000885 .20532227 .15716045 .23730469 .12528484 .27929688 .10446167 .32128907 .08364868 .3658854 .07324219 .41308595 .07324219 .45410157 .07324219 .49414063 .08111572 .5332031 .09686279 .5722656 .11262003 .601888 .12943013 .6220703 .14729309V.28027345H.4116211Z"/>
<path id="font_4_33" d="M.06542969 0V.5185547H.14453125V.44482423C.18256633 .50179037 .23750305 .53027346 .30934144 .53027346 .34054057 .53027346 .36922203 .5246582 .39538575 .51342776 .42155967 .50219729 .44114686 .48746745 .45414735 .46923829 .46714784 .45100913 .47625224 .42936198 .48146058 .40429688 .4847056 .38802085 .48632813 .35953776 .48632813 .31884767V0H.3984375V.3154297C.3984375 .35123698 .39502464 .37801109 .38819886 .39575196 .38138328 .41349284 .36928306 .42765299 .3518982 .43823243 .33452354 .44881187 .3141378 .45410157 .29074098 .45410157 .2533773 .45410157 .22113037 .44222007 .19400025 .41845704 .1668803 .394694 .15332031 .34960938 .15332031 .28320313V0H.06542969Z"/>
<path id="font_4_4" d="M.07324219 0V.7158203H.34179688C.39648438 .7158203 .4403483 .70857748 .47338868 .6940918 .506429 .67960616 .5323079 .6573079 .5510254 .62719729 .56974288 .5970866 .57910159 .56559249 .57910159 .53271487 .57910159 .5021159 .5708008 .47330729 .5541992 .44628907 .53759768 .41927085 .51253256 .39746095 .4790039 .38085938 .52229818 .36816407 .5555827 .34651695 .5788574 .31591798 .60213217 .285319 .61376956 .2491862 .61376956 .20751953 .61376956 .17399089 .60668948 .14282227 .5925293 .11401367 .57836917 .08520508 .5608724 .06298828 .54003909 .04736328 .51920577 .03173828 .49308268 .01993815 .46166993 .011962891 .43025718 .0039876305 .3917643 0 .3461914 0H.07324219M.16796875 .41503907H.3227539C.3647461 .41503907 .39485679 .417806 .41308595 .42333985 .43717448 .4305013 .45532228 .4423828 .4675293 .45898438 .47973634 .47558595 .48583985 .49641929 .48583985 .5214844 .48583985 .5452474 .48014323 .5661621 .46875 .5842285 .45735679 .6022949 .44108073 .61466476 .41992188 .6213379 .39876304 .62801107 .36246745 .63134768 .31103517 .63134768H.16796875V.41503907M.16796875 .084472659H.3461914C.37679038 .084472659 .39827476 .08561198 .41064454 .087890628 .43245445 .091796878 .4506836 .09830729 .46533204 .107421878 .47998048 .11653646 .49202476 .12980144 .50146487 .1472168 .51090499 .16463216 .515625 .18473308 .515625 .20751953 .515625 .23421224 .50878909 .2574056 .4951172 .2770996 .4814453 .2967936 .46248374 .31062828 .43823243 .31860353 .4139811 .32657878 .379069 .3305664 .3334961 .3305664H.16796875V.084472659Z"/>
<path id="font_4_21" d="M.40382386 .063964847C.37131248 .036295576 .34002177 .016764323 .30995179 .0053710939 .2798818-.0060221354 .24761455-.01171875 .21315003-.01171875 .15625508-.01171875 .11252848 .0021972657 .081970218 .030029297 .051411947 .057861329 .036132814 .09342448 .036132814 .13671875 .036132814 .16210938 .041900636 .18530274 .05343628 .20629883 .064982097 .22729492 .08009847 .24414063 .0987854 .25683595 .117482509 .26953126 .13853455 .27913413 .16194153 .28564454 .17916362 .2902018 .20516968 .29459635 .23995972 .29882813 .31082154 .30729167 .36299644 .3173828 .39648438 .32910157 .3968099 .34114585 .39697267 .34879557 .39697267 .35205079 .39697267 .38785807 .38868714 .41308595 .3721161 .42773438 .34969584 .44759117 .316391 .45751954 .27220155 .45751954 .2309316 .45751954 .20046489 .4502767 .18080139 .43579103 .16114807 .42130534 .14661153 .39567057 .13719177 .35888673L.05126953 .37060548C.059071859 .4073893 .07191467 .4370931 .08979797 .4597168 .107681278 .48234049 .13352967 .49975587 .16734314 .5119629 .2011668 .5241699 .24035137 .53027346 .28489686 .53027346 .32911683 .53027346 .36504618 .5250651 .39268495 .51464846 .4203237 .50423178 .4406433 .49112956 .4536438 .4753418 .46665446 .45955406 .47575889 .43961589 .48095704 .41552735 .48388673 .40055339 .48535157 .37353517 .48535157 .33447267V.21728516C.48535157 .13557942 .4872233 .08390299 .4909668 .06225586 .4947103 .040608724 .5021159 .019856772 .5131836 0H.42138673C.41228233 .018229166 .406428 .03955078 .40382386 .063964847M.39648438 .2602539C.36464439 .24723308 .31687928 .23616536 .2531891 .22705078 .21712749 .22184246 .19161988 .21598308 .17666626 .20947266 .16172283 .20296224 .15018718 .19344075 .14205933 .1809082 .13394165 .16837566 .12988281 .15445964 .12988281 .13916016 .12988281 .115722659 .13873799 .096191409 .15644837 .080566409 .17415874 .064941409 .20006816 .057128908 .23417664 .057128908 .26796977 .057128908 .2980245 .06453451 .32434083 .0793457 .35066734 .0941569 .37000529 .11442057 .38235475 .14013672 .3917745 .15999349 .39648438 .18929036 .39648438 .22802735V.2602539Z"/>
<path id="font_4_30" d="M.06640625 0V.7158203H.15429688V.3076172L.3623047 .5185547H.47607423L.27783204 .32617188 .49609376 0H.3876953L.2163086 .26513673 .15429688 .2055664V0H.06640625Z"/>
<path id="font_4_2" d="M.09082031 0V.100097659H.19091797V0H.09082031Z"/>
<path id="font_4_35" d="M.06542969-.19873047V.5185547H.14550781V.45117188C.16438802 .47753907 .18570964 .49731446 .20947266 .51049807 .23323567 .52368167 .26204429 .53027346 .29589845 .53027346 .34016929 .53027346 .37923179 .5188802 .41308595 .49609376 .4469401 .47330729 .4724935 .4411621 .4897461 .3996582 .5069987 .3581543 .515625 .31266276 .515625 .2631836 .515625 .2101237 .5061035 .16235352 .48706056 .11987305 .46801759 .07739258 .4403483 .044840497 .40405274 .022216797 .36775718-.00040690104 .32958985-.01171875 .28955079-.01171875 .2602539-.01171875 .2339681-.005533854 .21069336 .0068359377 .18741863 .019205729 .16829427 .03483073 .15332031 .053710939V-.19873047H.06542969M.14501953 .25634767C.14501953 .18961589 .15852864 .14029949 .18554688 .10839844 .21256511 .0764974 .24527996 .060546876 .2836914 .060546876 .3227539 .060546876 .35620118 .077067058 .3840332 .11010742 .41186524 .14314778 .42578126 .19433594 .42578126 .26367188 .42578126 .3297526 .41219078 .37923179 .38500978 .41210938 .35782878 .44498698 .32535807 .46142579 .28759767 .46142579 .25016276 .46142579 .21704102 .44392906 .18823242 .40893556 .15942383 .37394206 .14501953 .32307945 .14501953 .25634767Z"/>
<path id="font_4_42" d="M.06201172-.19970703 .052246095-.1171875C.07145182-.122395839 .08821615-.125 .10253906-.125 .12207031-.125 .13769531-.12174479 .14941406-.115234378 .16113281-.10872396 .17073567-.099609378 .17822266-.087890628 .18375652-.07910156 .19270833-.057291669 .20507813-.022460938 .20670574-.017578125 .20930989-.010416667 .21289063-.0009765625L.016113282 .5185547H.110839847L.21875 .21826172C.23274739 .18017578 .24527996 .14013672 .25634767 .09814453 .2664388 .13850911 .27848307 .17789714 .29248048 .2163086L.4033203 .5185547H.49121095L.2939453-.0087890629C.27278648-.06575521 .25634767-.10498047 .2446289-.12646485 .2290039-.1554362 .21110027-.17667644 .19091797-.19018555 .17073567-.20369466 .14664714-.21044922 .118652347-.21044922 .10172526-.21044922 .082845058-.20686849 .06201172-.19970703Z"/>
<path id="font_4_37" d="M.064453128 0V.5185547H.14355469V.4399414C.16373699 .47672526 .18237305 .50097659 .19946289 .5126953 .21655274 .52441409 .23535156 .53027346 .25585938 .53027346 .28548179 .53027346 .31559245 .5208333 .3461914 .5019531L.31591798 .42041017C.2944336 .43310548 .27294923 .43945313 .25146485 .43945313 .23225911 .43945313 .21500652 .43367515 .19970703 .42211915 .18440755 .41056315 .17350261 .39453126 .16699219 .37402345 .15722656 .34277345 .15234375 .30859376 .15234375 .27148438V0H.064453128Z"/>
<path id="font_4_38" d="M.030273438 .15478516 .1171875 .16845703C.12207031 .1336263 .13566081 .106933597 .15795899 .088378909 .18025716 .06982422 .21142578 .060546876 .25146485 .060546876 .29182945 .060546876 .32177735 .06876627 .3413086 .08520508 .36083985 .10164388 .37060548 .12093099 .37060548 .1430664 .37060548 .16292317 .36197917 .17854817 .34472657 .1899414 .33268229 .1977539 .30273438 .2076823 .2548828 .21972656 .19042969 .23600261 .14575196 .2500814 .12084961 .2619629 .095947269 .2738444 .077067058 .2902832 .064208988 .3112793 .05135091 .3322754 .044921876 .35546876 .044921876 .38085938 .044921876 .40397135 .05021159 .42537437 .060791017 .44506837 .071370448 .46476237 .08577474 .48111979 .104003909 .49414063 .11767578 .50423178 .13631185 .5127767 .15991211 .5197754 .18351238 .5267741 .20882161 .53027346 .23583985 .53027346 .27652995 .53027346 .31225587 .52441409 .34301759 .5126953 .3737793 .50097659 .39648438 .48510743 .4111328 .4650879 .42578126 .44506837 .4358724 .41829429 .44140626 .38476563L.35546876 .37304688C.3515625 .3997396 .34025065 .4205729 .3215332 .43554688 .30281578 .45052085 .2763672 .4580078 .2421875 .4580078 .20182292 .4580078 .17301433 .45133464 .15576172 .43798829 .13850911 .42464195 .12988281 .40901695 .12988281 .39111329 .12988281 .37972007 .13346355 .36946617 .140625 .36035157 .14778646 .35091148 .15901692 .34309898 .1743164 .33691407 .18310547 .33365885 .20898438 .32617188 .25195313 .31445313 .3141276 .29785157 .35750328 .28426109 .38208009 .27368165 .4066569 .2631022 .425944 .24772136 .4399414 .22753906 .4539388 .20735677 .4609375 .18229167 .4609375 .15234375 .4609375 .123046878 .45239259 .095458988 .43530274 .06958008 .4182129 .043701173 .3935547 .02368164 .36132813 .009521484 .32910157-.004638672 .29264323-.01171875 .25195313-.01171875 .18457031-.01171875 .1332194 .0022786458 .09790039 .030273438 .06258138 .05826823 .040039064 .09977213 .030273438 .15478516Z"/>
<path id="font_4_3" d="M-.0014648438 0 .2734375 .7158203H.37548829L.66845706 0H.5605469L.47705079 .21679688H.17773438L.099121097 0H-.0014648438M.20507813 .2939453H.4477539L.37304688 .4921875C.3502604 .5524089 .33333335 .601888 .32226563 .640625 .31315104 .59472659 .30029298 .5491536 .2836914 .50390627L.20507813 .2939453Z"/>
<path id="font_4_22" d="M.14697266 0H.06542969V.7158203H.15332031V.46044923C.19037883 .5069987 .23767598 .53027346 .2952118 .53027346 .32707215 .53027346 .3572235 .5238444 .3856659 .5109863 .41411845 .49812828 .43752543 .48006187 .45588685 .4567871 .47425843 .43351237 .48864237 .4054362 .4990387 .3725586 .5094452 .339681 .51464846 .30452476 .51464846 .26708985 .51464846 .17822266 .4927012 .10953776 .44880677 .061035158 .4049225 .012532552 .3522593-.01171875 .29081727-.01171875 .22970073-.01171875 .18175252 .013834636 .14697266 .064941409V0M.1459961 .2631836C.1459961 .20100911 .15444438 .15608724 .17134094 .12841797 .19895935 .08317057 .23632813 .060546876 .28344728 .060546876 .3217977 .060546876 .35494486 .07722982 .3828888 .1105957 .41083274 .1439616 .4248047 .19368489 .4248047 .25976563 .4248047 .32747398 .4113973 .3774414 .38458253 .40966798 .35777793 .44189454 .32536827 .4580078 .28735353 .4580078 .2490031 .4580078 .21585591 .44132487 .18791199 .40795899 .15996807 .3745931 .1459961 .32633464 .1459961 .2631836Z"/>
<path id="font_4_31" d="M.06347656 0V.7158203H.15136719V0H.06347656Z"/>
<path id="font_4_15" d="M.07714844 0V.7158203H.34692384C.39440919 .7158203 .43067423 .7135417 .455719 .7089844 .49084474 .703125 .52027389 .6919759 .54400637 .6755371 .567749 .6590983 .5868581 .6360677 .6013336 .6064453 .61580917 .57682296 .6230469 .5442708 .6230469 .50878909 .6230469 .44791667 .60369876 .39640299 .56500247 .35424806 .52630618 .3120931 .45639549 .29101563 .3552704 .29101563H.171875V0H.07714844M.171875 .37548829H.3566742C.41779075 .37548829 .46118675 .3868815 .48686219 .40966798 .5125478 .43245445 .5253906 .46451823 .5253906 .5058594 .5253906 .5358073 .51783248 .5614421 .50271609 .5827637 .4875997 .60408529 .46769206 .61816409 .44299317 .625 .427063 .62923178 .39764405 .63134768 .35473634 .63134768H.171875V.37548829Z"/>
<path id="font_4_34" d="M.033203126 .25927735C.033203126 .355306 .059895833 .42643229 .11328125 .47265626 .15787761 .5110677 .21223958 .53027346 .2763672 .53027346 .34765626 .53027346 .40592448 .5069173 .45117188 .46020509 .49641929 .41349284 .51904299 .34895835 .51904299 .26660157 .51904299 .1998698 .5090332 .14737956 .48901368 .10913086 .46899415 .070882167 .43986003 .041178388 .40161134 .020019532 .36336265-.0011393229 .3216146-.01171875 .2763672-.01171875 .20377605-.01171875 .1451009 .011555989 .1003418 .05810547 .055582685 .104654949 .033203126 .17171224 .033203126 .25927735M.123535159 .25927735C.123535159 .1928711 .13802083 .14314778 .16699219 .11010742 .19596355 .077067058 .23242188 .060546876 .2763672 .060546876 .31998698 .060546876 .35628257 .07714844 .3852539 .11035156 .41422526 .14355469 .42871095 .19417317 .42871095 .26220704 .42871095 .32633464 .4141439 .3749186 .38500978 .40795899 .35587565 .44099937 .31966148 .45751954 .2763672 .45751954 .23242188 .45751954 .19596355 .44108073 .16699219 .40820313 .13802083 .37532554 .123535159 .3256836 .123535159 .25927735Z"/>
<path id="font_4_29" d="M.06640625 .6147461V.7158203H.15429688V.6147461H.06640625M.06640625 0V.5185547H.15429688V0H.06640625Z"/>
<path id="font_4_27" d="M.049804689-.04296875 .1352539-.055664064C.13883464-.08203125 .14876302-.10123698 .16503906-.11328125 .18684896-.1295573 .21663411-.13769531 .25439454-.13769531 .29508464-.13769531 .3264974-.1295573 .3486328-.11328125 .37076823-.09700521 .3857422-.07421875 .3935547-.044921876 .39811198-.027018229 .40022788 .010579427 .39990235 .067871097 .36149089 .022623698 .3136393 0 .25634767 0 .1850586 0 .12988281 .025716147 .09082031 .07714844 .051757814 .12858074 .032226564 .19026692 .032226564 .26220704 .032226564 .3116862 .041178388 .35734049 .05908203 .39916993 .07698568 .44099937 .10294596 .47330729 .13696289 .49609376 .17097982 .5188802 .2109375 .53027346 .25683595 .53027346 .31803385 .53027346 .3684896 .5055339 .40820313 .4560547V.5185547H.4892578V.0703125C.4892578-.010416667 .48103843-.06762695 .4645996-.10131836 .4481608-.13500977 .42211915-.1616211 .3864746-.18115235 .35083009-.2006836 .30696617-.21044922 .2548828-.21044922 .19303386-.21044922 .1430664-.1965332 .10498047-.16870117 .06689453-.14086914 .048502607-.098958339 .049804689-.04296875M.122558597 .2685547C.122558597 .20052083 .1360677 .1508789 .16308594 .119628909 .19010417 .088378909 .22395833 .072753909 .26464845 .072753909 .30501304 .072753909 .3388672 .08829752 .36621095 .119384769 .3935547 .150472 .40722657 .19921875 .40722657 .265625 .40722657 .32910157 .3931478 .37695313 .36499024 .4091797 .33683268 .44140626 .30289714 .45751954 .2631836 .45751954 .2241211 .45751954 .19091797 .4416504 .16357422 .4099121 .13623047 .37817384 .122558597 .3310547 .122558597 .2685547Z"/>
<path id="font_4_40" d="M.40478517 0V.076171878C.3644816 .017578125 .30970765-.01171875 .24046326-.01171875 .20991516-.01171875 .1813914-.005859375 .15489197 .005859375 .12840271 .017578125 .10873922 .03230794 .09590149 .050048829 .08306376 .06778971 .07404073 .08951823 .0688324 .115234378 .06526184 .13248699 .06347656 .15983074 .06347656 .19726563V.5185547H.15136719V.23095703C.15136719 .1850586 .15315247 .15413411 .15672302 .1381836 .1622467 .11507162 .17394002 .09692383 .19180298 .083740238 .2096761 .07055664 .23177083 .063964847 .25808717 .063964847 .28440348 .063964847 .3090922 .0707194 .33215333 .084228519 .3552246 .09773763 .3715515 .116129558 .38113404 .1394043 .39071656 .16267903 .3955078 .19645183 .3955078 .24072266V.5185547H.48339845V0H.40478517Z"/>
<path id="font_4_24" d="M.40234376 0V.06542969C.36946617 .0139973959 .3211263-.01171875 .25732423-.01171875 .21598308-.01171875 .17797852-.00032552085 .14331055 .022460938 .10864258 .045247396 .08178711 .077067058 .06274414 .11791992 .043701173 .15877278 .034179689 .20572917 .034179689 .25878907 .034179689 .31054688 .04280599 .35750328 .060058595 .3996582 .077311199 .44181315 .1031901 .4741211 .13769531 .49658204 .17220052 .51904299 .21077474 .53027346 .25341798 .53027346 .28466798 .53027346 .3125 .52368167 .33691407 .51049807 .36132813 .49731446 .3811849 .48014323 .39648438 .45898438V.7158203H.48388673V0H.40234376M.12451172 .25878907C.12451172 .19238281 .13850911 .14274089 .1665039 .10986328 .1944987 .07698568 .22753906 .060546876 .265625 .060546876 .30403648 .060546876 .33666993 .07625326 .3635254 .107666019 .39038087 .13907878 .4038086 .18701172 .4038086 .25146485 .4038086 .32242839 .39013673 .37451173 .36279298 .40771485 .33544923 .44091798 .3017578 .45751954 .26171876 .45751954 .22265625 .45751954 .19002278 .441569 .16381836 .40966798 .13761394 .37776695 .12451172 .32747398 .12451172 .25878907Z"/>
<path id="font_4_18" d="M.25927735 0V.63134768H.0234375V.7158203H.5908203V.63134768H.3540039V0H.25927735Z"/>
<path id="font_4_17" d="M.044921876 .22962952 .13427735 .23744202C.13850911 .2016042 .14835613 .17220052 .16381836 .14923096 .1792806 .1262614 .20328777 .107691448 .23583985 .09352112 .26839195 .07935079 .30501304 .072265628 .34570313 .072265628 .38183595 .072265628 .41373698 .07764181 .44140626 .088394168 .46907554 .09914652 .4896647 .11388651 .5031738 .13261414 .5166829 .15134175 .5234375 .17178345 .5234375 .19393921 .5234375 .21642049 .51692709 .23604839 .50390627 .25282289 .4908854 .26959739 .46940104 .2836863 .43945313 .29508973 .4202474 .3025767 .37776695 .31421916 .31201173 .3300171 .24625652 .3458252 .20019531 .36073304 .17382813 .3747406 .13964844 .39265443 .11417643 .41488648 .09741211 .44143678 .08064779 .46798707 .072265628 .49771119 .072265628 .53060916 .072265628 .56677249 .08251953 .6005707 .103027347 .6320038 .123535159 .6634471 .15348308 .6873118 .1928711 .703598 .23225911 .7198842 .27604167 .72802737 .32421876 .72802737 .37727867 .72802737 .42407228 .71947738 .4645996 .7023773 .50512698 .6852773 .5362956 .66011556 .55810549 .6268921 .57991537 .5936788 .5916341 .55606588 .5932617 .51405337L.5024414 .50720217C.4975586 .55249026 .48103843 .58670046 .45288087 .60983279 .4247233 .6329651 .38313804 .64453127 .328125 .64453127 .27083335 .64453127 .22908528 .634023 .20288086 .6130066 .17667644 .5920003 .16357422 .56667587 .16357422 .5370331 .16357422 .5112966 .17285156 .49012248 .19140625 .47351075 .20963542 .45689903 .25724284 .43987528 .33422853 .42243959 .4112142 .40501405 .46402995 .38978578 .49267579 .37675477 .53434249 .35753886 .5651042 .33318583 .58496096 .30369569 .6048177 .2742157 .6147461 .24025981 .6147461 .201828 .6147461 .16371155 .6038411 .12779236 .58203127 .094070438 .5602214 .060358686 .52888998 .03413391 .4880371 .015396118 .44718424-.0033315023 .40120445-.0126953129 .35009767-.0126953129 .285319-.0126953129 .2310384-.003250122 .18725586 .015640259 .14347331 .03453064 .10913086 .06294759 .084228519 .10089111 .059326173 .13883464 .046223958 .18174744 .044921876 .22962952Z"/>
<path id="font_4_20" d="M.28173829 0 .0043945314 .7158203H.106933597L.29296876 .19580078C.30794273 .15413411 .32047526 .11507162 .3305664 .07861328 .34163413 .11767578 .3544922 .15673828 .36914063 .19580078L.5625 .7158203H.6591797L.37890626 0H.28173829Z"/>
<path id="font_4_1" d=""/>
<path id="font_4_10" d="M.09277344 0V.7158203H.1875V0H.09277344Z"/>
<path id="font_4_6" d="M.07714844 0V.7158203H.32373048C.37939454 .7158203 .421875 .71240237 .45117188 .7055664 .4921875 .6961263 .52718099 .67903646 .55615237 .6542969 .5939128 .6223958 .6221517 .5816243 .64086917 .5319824 .6595866 .48234049 .6689453 .4256185 .6689453 .3618164 .6689453 .30745445 .66259768 .25927735 .64990237 .21728516 .63720706 .17529297 .62093099 .14054363 .6010742 .11303711 .58121749 .0855306 .55948898 .06388346 .5358887 .048095704 .5122884 .03230794 .48380534 .020345053 .45043946 .012207031 .41707359 .0040690104 .3787435 0 .33544923 0H.07714844M.171875 .084472659H.32470704C.37190757 .084472659 .40893556 .08886719 .43579103 .09765625 .46264649 .10644531 .48404948 .1188151 .5 .13476563 .52246096 .15722656 .5399577 .18741863 .55249026 .2253418 .56502279 .26326499 .57128909 .30924479 .57128909 .36328126 .57128909 .43815104 .5590007 .49568687 .5344238 .5358887 .509847 .5760905 .47998048 .60302737 .44482423 .6166992 .4194336 .62646487 .37858073 .63134768 .32226563 .63134768H.171875V.084472659Z"/>
<path id="font_4_16" d="M.078125-.00048828127V.7158203H.3955078C.4593099 .7158203 .5078125 .7093811 .5410156 .6965027 .57421877 .68363448 .6007487 .66090396 .62060549 .62831118 .6404622 .5957184 .6503906 .5597026 .6503906 .5202637 .6503906 .4694214 .63395187 .42655946 .6010742 .39167787 .5681966 .35680644 .51741537 .3346456 .44873048 .3251953 .47379557 .31315104 .49283854 .30126954 .5058594 .28955079 .5335286 .26416017 .5597331 .23242188 .58447268 .19433594L.7089844-.00048828127H.58984377L.4951172 .1484375C.4674479 .19140625 .44466148 .22428386 .4267578 .24707031 .40885417 .26985679 .39282228 .28580729 .3786621 .29492188 .36450196 .30403648 .35009767 .31038413 .33544923 .31396485 .32470704 .3162435 .3071289 .3173828 .28271485 .3173828H.17285156V-.00048828127H.078125M.17285156 .39941407H.37646485C.41975913 .39941407 .45361329 .40390016 .47802735 .4128723 .5024414 .42184449 .5209961 .4361979 .5336914 .45593263 .5463867 .47566734 .5527344 .497111 .5527344 .5202637 .5527344 .554189 .540446 .582077 .51586917 .6039276 .49129234 .6257884 .45247398 .63671877 .39941407 .63671877H.17285156V.39941407Z"/>
<path id="font_4_7" d="M.08203125 0V.7158203H.5649414V.63134768H.17675781V.40966798H.5126953V.3251953H.17675781V0H.08203125Z"/>
<path id="font_4_13" d="M.07421875 0V.7158203H.21679688L.38623048 .20898438C.40185548 .16178386 .4132487 .12646485 .42041017 .103027347 .4285482 .12906902 .4412435 .1673177 .4584961 .21777344L.6298828 .7158203H.7573242V0H.6660156V.5991211L.4580078 0H.3725586L.16552735 .609375V0H.07421875Z"/>
<path id="font_4_9" d="M.080078128 0V.7158203H.17480469V.421875H.546875V.7158203H.64160159V0H.546875V.33740235H.17480469V0H.080078128Z"/>
<path id="font_4_32" d="M.06542969 0V.5185547H.14404297V.44580079C.1602885 .4711914 .18190003 .49161784 .20887757 .5070801 .2358551 .5225423 .26656596 .53027346 .30101014 .53027346 .33936057 .53027346 .37080384 .52229818 .39533998 .50634768 .41988627 .49039714 .43719483 .46809898 .44726563 .43945313 .4883423 .5 .5418091 .53027346 .607666 .53027346 .6591797 .53027346 .6987915 .5160319 .72650149 .48754884 .7542114 .45906578 .7680664 .4152018 .7680664 .35595704V0H.68066409V.32666017C.68066409 .3618164 .67781069 .38712565 .6721039 .4025879 .6663971 .41805015 .6560364 .4305013 .6410217 .4399414 .6260173 .4493815 .6084035 .45410157 .58818057 .45410157 .5516408 .45410157 .5212962 .44197593 .4971466 .4177246 .4730072 .3934733 .4609375 .35465495 .4609375 .30126954V0H.37304688V.33691407C.37304688 .37597657 .36590068 .40527345 .35160829 .4248047 .3373159 .44433595 .31392924 .45410157 .28144837 .45410157 .2567698 .45410157 .23395284 .44759117 .21299744 .4345703 .1920522 .42154948 .1768697 .4025065 .16744995 .3774414 .1580302 .3523763 .15332031 .3162435 .15332031 .26904298V0H.06542969Z"/>
<path id="font_4_12" d="M.07324219 0V.7158203H.16796875V.084472659H.5205078V0H.07324219Z"/>
<path id="font_4_19" d="M.54589846 .7158203H.640625V.3022461C.640625 .23030599 .63249209 .17317708 .6162262 .13085938 .5999705 .088541667 .5706177 .05411784 .5281677 .02758789 .48572795 .0010579428 .43003337-.012207031 .36108399-.012207031 .29408775-.012207031 .23928325-.0006510417 .19667053 .022460938 .154068 .045572919 .12365723 .07902018 .10543823 .122802738 .08722941 .16658528 .078125 .22639974 .078125 .3022461V.7158203H.17285156V.30273438C.17285156 .24055989 .17861939 .19474285 .19015503 .1652832 .20170085 .13582357 .22153218 .11311849 .24964905 .09716797 .2777761 .081217449 .3121592 .07324219 .35279847 .07324219 .42236839 .07324219 .47194419 .089029949 .5015259 .12060547 .5311076 .15218099 .54589846 .21289063 .54589846 .30273438V.7158203Z"/>
<path id="font_4_5" d="M.5878906 .25048829 .6826172 .2265625C.66276046 .14876302 .6270345 .08943685 .57543948 .048583986 .5238444 .0077311198 .46077476-.0126953129 .38623048-.0126953129 .30908204-.0126953129 .24633789 .0030110677 .19799805 .034423829 .1496582 .065836589 .11287435 .111328128 .087646488 .17089844 .06241862 .23046875 .049804689 .2944336 .049804689 .36279298 .049804689 .43733726 .06404623 .50236007 .0925293 .5578613 .12101237 .6133626 .16153972 .6555176 .21411133 .6843262 .26668296 .71313479 .32454429 .72753909 .3876953 .72753909 .4593099 .72753909 .51953127 .7093099 .5683594 .67285159 .6171875 .63639327 .6512044 .5851237 .67041018 .51904299L.57714846 .4970703C.5605469 .5491536 .5364583 .58707687 .5048828 .61083987 .47330729 .63460287 .43359376 .6464844 .3857422 .6464844 .33072917 .6464844 .28474937 .6333008 .24780274 .6069336 .21085613 .5805664 .18489583 .545166 .16992188 .5007324 .15494792 .45629884 .14746094 .41048179 .14746094 .36328126 .14746094 .30240885 .15633138 .24926758 .17407227 .20385742 .19181316 .15844727 .21940105 .12451172 .25683595 .10205078 .29427085 .079589847 .3347982 .068359378 .37841798 .068359378 .43147788 .068359378 .47639976 .08365885 .5131836 .11425781 .54996749 .14485677 .5748698 .19026692 .5878906 .25048829Z"/>
<path id="font_4_11" d="M.07324219 0V.7158203H.16796875V.36083985L.5234375 .7158203H.65185549L.3515625 .42578126 .66503909 0H.54003909L.28515626 .3623047 .16796875 .24804688V0H.07324219Z"/>
<path id="font_4_14" d="M.047851564 .34838868C.047851564 .467275 .0797526 .5603485 .14355469 .62760928 .20735677 .6948802 .28971354 .7285156 .390625 .7285156 .45670573 .7285156 .51627609 .7127177 .56933596 .6811218 .6223958 .64952597 .6628418 .60546877 .6906738 .5489502 .71850588 .49243165 .7324219 .42834474 .7324219 .35668946 .7324219 .28404746 .71777346 .21906026 .68847659 .1617279 .6591797 .10440572 .6176758 .06100464 .56396487 .03152466 .5102539 .0020446778 .4523112-.0126953129 .39013673-.0126953129 .3227539-.0126953129 .26253257 .0035909017 .20947266 .03616333 .15641277 .068735759 .11621094 .113194789 .08886719 .1695404 .061523439 .2258962 .047851564 .2855123 .047851564 .34838868M.14550781 .34690858C.14550781 .26057435 .16870117 .19256592 .21508789 .1428833 .2614746 .09320068 .31966148 .068359378 .38964845 .068359378 .4609375 .068359378 .5196126 .093444827 .5656738 .14361573 .61173507 .19378662 .6347656 .26497398 .6347656 .35717774 .6347656 .41549684 .62491866 .46640016 .6052246 .5098877 .5855306 .55338546 .556722 .58710739 .5187988 .61105349 .48087565 .6349996 .4383138 .64697268 .39111329 .64697268 .324056 .64697268 .26635743 .6239217 .21801758 .5778198 .16967774 .53171798 .14550781 .45474754 .14550781 .34690858Z"/>
<path id="font_4_41" d="M.20996094 0 .0126953129 .5185547H.10546875L.21679688 .20800781C.22884114 .17447917 .23990886 .13964844 .25 .103515628 .2578125 .13085938 .26871745 .16373699 .28271485 .20214844L.39794923 .5185547H.48828126L.2919922 0H.20996094Z"/>
<path id="font_4_36" d="M.39648438-.19873047V.05517578C.3828125 .03597005 .36368815 .020019532 .33911134 .0073242189 .31453453-.0053710939 .28841148-.01171875 .2607422-.01171875 .19921875-.01171875 .14624024 .012858073 .10180664 .06201172 .057373048 .11116537 .03515625 .17854817 .03515625 .26416017 .03515625 .3162435 .044189454 .36295573 .06225586 .40429688 .080322269 .44563804 .106526698 .4769694 .14086914 .49829103 .1752116 .5196126 .21289063 .53027346 .25390626 .53027346 .31803385 .53027346 .3684896 .5032552 .40527345 .44921876V.5185547H.484375V-.19873047H.39648438M.12548828 .2607422C.12548828 .19401042 .13948567 .1439616 .16748047 .1105957 .19547527 .07722982 .2290039 .060546876 .2680664 .060546876 .3055013 .060546876 .33772788 .076416019 .3647461 .1081543 .3917643 .13989258 .40527345 .18815105 .40527345 .2529297 .40527345 .3219401 .3910319 .3738607 .36254884 .4086914 .33406578 .44352214 .3006185 .4609375 .26220704 .4609375 .2241211 .4609375 .19181316 .44474284 .1652832 .41235353 .13875325 .3799642 .12548828 .3294271 .12548828 .2607422Z"/>
</defs>
<g clip-path="url(#clip_1)">
<g clip-path="url(#clip_2)">
<path transform="matrix(1,0,0,-1,0,1134)" d="M0 1134H1134V0H0Z" fill="#ffffff"/>
</g>
</g>
<g clip-path="url(#clip_3)">
<path transform="matrix(1,0,0,-1,0,1134)" d="M0 1134H1133.875V.125H0Z" fill="#ffffff"/>
<path transform="matrix(1,0,0,-1,0,1134)" d="M0 835.4634H1133.875V.125H0Z" fill="#d0deff"/>
<path transform="matrix(1,0,0,-1,0,1134)" d="M20.16008 406.9756H374.4001V45.2195H20.16008Z" fill="#ffffff"/>
<path transform="matrix(1,0,0,-1,0,1134)" d="M567.2196 819.6585 657.2246 779.2683 719.5358 765.2195 799.1557 758.1951 840.6964 721.3171 965.3188 710.7805 1169.561 719.5609 1145.329 847.7561 615.6838 846 567.2196 819.6585Z" fill="#ffe4ee" fill-rule="evenodd"/>
<path transform="matrix(1,0,0,-1,0,1134)" d="M0 1134H1133.875V810.8781H0Z" fill="#ffe2f0"/>
<path transform="matrix(1,0,0,-1,0,1134)" d="M838.9072 675.3145 827.9596 661.0264 832.7223 657.3772 843.6699 671.6653ZM824.3104 656.2638 813.3628 641.9757 818.1255 638.3265 829.0731 652.6145ZM809.7136 637.213 798.7659 622.9249 803.5286 619.2757 814.4763 633.5638ZM795.1167 618.1622 784.1691 603.8741 788.9318 600.2249 799.8794 614.513ZM780.5199 599.1114 769.5723 584.8233 774.335 581.1741 785.2826 595.4622ZM765.9231 580.0606 764.3299 577.9813 769.0926 574.3321 770.6858 576.4114ZM761.3918 584.0119 757.5883 564.25 775.6799 573.0643Z" fill="#bfbfbf"/>
<path transform="matrix(1,0,0,-1,0,1134)" d="M844.5915 971.1611 839.3551 953.9396 845.0956 952.1941 850.332 969.4156ZM837.6096 948.1991 832.3732 930.9776 838.1137 929.2321 843.3501 946.4536ZM830.6277 925.2371 825.3912 908.0156 831.1317 906.2702 836.3682 923.4916ZM823.6458 902.2751 818.4093 885.0536 824.1498 883.3082 829.3863 900.5297ZM816.6638 879.3132 811.4274 862.0917 817.1679 860.3462 822.4043 877.5677ZM809.6819 856.3512 804.4455 839.1297 810.186 837.3842 815.4224 854.6057ZM802.7 833.3892 797.4635 816.1677 803.204 814.4222 808.4405 831.6437ZM795.7181 810.4272 790.4816 793.2057 796.2221 791.4603 801.4585 808.6817ZM788.7361 787.4652 783.4997 770.2437 789.2402 768.4983 794.4766 785.7198ZM781.7542 764.5033 776.5178 747.2818 782.2583 745.5363 787.4947 762.7578ZM774.7723 741.5413 769.5358 724.3198 775.2763 722.5743 780.5128 739.7958ZM767.7904 718.5793 762.5539 701.3578 768.2944 699.6123 773.5308 716.8338ZM760.8084 695.6173 755.572 678.3958 761.3125 676.6503 766.5489 693.8718ZM753.8265 672.6553 748.5901 655.4338 754.3306 653.6883 759.567 670.9098ZM746.8446 649.6933 741.6081 632.4719 747.3486 630.7263 752.5851 647.9478ZM739.8626 626.7313 734.6262 609.5099 740.3667 607.7643 745.6031 624.9858ZM732.8807 603.7694 728.905 590.6942 734.6455 588.9487 738.6212 602.0239ZM724.0374 595.3103 727.4117 575.4706 741.2589 590.0738Z" fill="#bfbfbf"/>
<path transform="matrix(1,0,0,-1,0,1134)" d="M892.4268 942.0553 885.6551 925.3777 891.2143 923.1204 897.986 939.7981ZM883.3978 919.8185 876.626 903.1409 882.1852 900.8836 888.957 917.5612ZM874.3688 897.5817 867.597 880.904 873.1562 878.6468 879.928 895.3244ZM865.3398 875.3448 858.568 858.6672 864.1272 856.4099 870.899 873.0876ZM856.3107 853.108 849.539 836.4304 855.0982 834.1731 861.8699 850.8507ZM847.2817 830.8712 840.51 814.1935 846.0692 811.9363 852.8409 828.6139ZM838.2527 808.6343 831.4809 791.9567 837.0401 789.6994 843.8119 806.3771ZM829.2237 786.3975 822.4519 769.7199 828.0111 767.4626 834.7829 784.1402ZM820.1947 764.1607 813.4229 747.483 818.9821 745.2258 825.7539 761.9034ZM811.1656 741.9238 804.3939 725.2462 809.9531 722.989 816.7248 739.6666ZM802.1366 719.687 795.3648 703.0094 800.924 700.7521 807.6958 717.4298ZM793.1076 697.4502 786.3358 680.7726 791.895 678.5153 798.6668 695.1929ZM784.0786 675.2133 777.3068 658.5357 782.866 656.2785 789.6378 672.9561ZM775.0495 652.9765 768.2778 636.2989 773.837 634.0416 780.6088 650.7193ZM766.0205 630.7397 759.2488 614.0621 764.808 611.8048 771.5797 628.4824ZM756.9915 608.5028 750.2197 591.8252 755.7789 589.568 762.5507 606.2456ZM747.9625 586.266 747.746 585.733 753.3052 583.4756 753.5217 584.0087ZM743.3153 590.7694 744.8823 570.7059 759.9929 583.9977Z" fill="#bfbfbf"/>
<path transform="matrix(1,0,0,-1,0,1134)" d="M396.6927 1106.128H749.7379V1069.776H396.6927Z" fill="#ffffff"/>
<path transform="matrix(.00007874016,0,0,.00007874016,396.6927,27.871949)" stroke-width="38100" stroke-linecap="butt" stroke-linejoin="round" fill="none" stroke="#000000" d="M0 0H4483674V461665H0Z"/>
<use data-text="f" xlink:href="#font_4_26" transform="matrix(24,0,0,-24,481.1527,54.47998)"/>
<use data-text="e" xlink:href="#font_4_25" transform="matrix(24,0,0,-24,487.7767,54.47998)"/>
<use data-text="t" xlink:href="#font_4_39" transform="matrix(24,0,0,-24,501.15193,54.47998)"/>
<use data-text="c" xlink:href="#font_4_23" transform="matrix(24,0,0,-24,507.7759,54.47998)"/>
<use data-text="h" xlink:href="#font_4_28" transform="matrix(24,0,0,-24,519.77597,54.47998)"/>
<use data-text="G" xlink:href="#font_4_8" transform="matrix(24,0,0,-24,533.1511,54.47998)"/>
<use data-text="e" xlink:href="#font_4_25" transform="matrix(24,0,0,-24,551.7751,54.47998)"/>
<use data-text="n" xlink:href="#font_4_33" transform="matrix(24,0,0,-24,565.1503,54.47998)"/>
<use data-text="B" xlink:href="#font_4_4" transform="matrix(24,0,0,-24,578.5255,54.47998)"/>
<use data-text="a" xlink:href="#font_4_21" transform="matrix(24,0,0,-24,594.5263,54.47998)"/>
<use data-text="n" xlink:href="#font_4_33" transform="matrix(24,0,0,-24,607.9015,54.47998)"/>
<use data-text="k" xlink:href="#font_4_30" transform="matrix(24,0,0,-24,621.27676,54.47998)"/>
<use data-text="." xlink:href="#font_4_2" transform="matrix(24,0,0,-24,633.27676,54.47998)"/>
<use data-text="p" xlink:href="#font_4_35" transform="matrix(24,0,0,-24,639.90078,54.47998)"/>
<use data-text="y" xlink:href="#font_4_42" transform="matrix(24,0,0,-24,653.27597,54.47998)"/>
<path transform="matrix(1,0,0,-1,0,1134)" d="M396.6927 920.4988H749.7379V884.1472H396.6927Z" fill="#ffffff"/>
<path transform="matrix(.00007874016,0,0,.00007874016,396.6927,213.50122)" stroke-width="38100" stroke-linecap="butt" stroke-linejoin="round" fill="none" stroke="#000000" d="M0 0H4483674V461665H0Z"/>
<use data-text="p" xlink:href="#font_4_35" transform="matrix(24,0,0,-24,461.0277,240)"/>
<use data-text="r" xlink:href="#font_4_37" transform="matrix(24,0,0,-24,474.40293,240)"/>
<use data-text="e" xlink:href="#font_4_25" transform="matrix(24,0,0,-24,482.4021,240)"/>
<use data-text="s" xlink:href="#font_4_38" transform="matrix(24,0,0,-24,495.7773,240)"/>
<use data-text="e" xlink:href="#font_4_25" transform="matrix(24,0,0,-24,507.7773,240)"/>
<use data-text="n" xlink:href="#font_4_33" transform="matrix(24,0,0,-24,521.1525,240)"/>
<use data-text="c" xlink:href="#font_4_23" transform="matrix(24,0,0,-24,534.5277,240)"/>
<use data-text="e" xlink:href="#font_4_25" transform="matrix(24,0,0,-24,546.5277,240)"/>
<use data-text="A" xlink:href="#font_4_3" transform="matrix(24,0,0,-24,559.9029,240)"/>
<use data-text="b" xlink:href="#font_4_22" transform="matrix(24,0,0,-24,575.9037,240)"/>
<use data-text="s" xlink:href="#font_4_38" transform="matrix(24,0,0,-24,589.27896,240)"/>
<use data-text="e" xlink:href="#font_4_25" transform="matrix(24,0,0,-24,601.27896,240)"/>
<use data-text="n" xlink:href="#font_4_33" transform="matrix(24,0,0,-24,614.6541,240)"/>
<use data-text="c" xlink:href="#font_4_23" transform="matrix(24,0,0,-24,628.0293,240)"/>
<use data-text="e" xlink:href="#font_4_25" transform="matrix(24,0,0,-24,640.0293,240)"/>
<use data-text="." xlink:href="#font_4_2" transform="matrix(24,0,0,-24,653.40457,240)"/>
<use data-text="p" xlink:href="#font_4_35" transform="matrix(24,0,0,-24,660.0285,240)"/>
<use data-text="y" xlink:href="#font_4_42" transform="matrix(24,0,0,-24,673.4037,240)"/>
<path transform="matrix(1,0,0,-1,0,1134)" d="M396.6927 736.4176H749.7379V700.066H396.6927Z" fill="#ffffff"/>
<path transform="matrix(.00007874016,0,0,.00007874016,396.6927,397.5824)" stroke-width="38100" stroke-linecap="butt" stroke-linejoin="round" fill="none" stroke="#000000" d="M0 0H4483674V461665H0Z"/>
<use data-text="b" xlink:href="#font_4_22" transform="matrix(24,0,0,-24,434.3402,424.07997)"/>
<use data-text="l" xlink:href="#font_4_31" transform="matrix(24,0,0,-24,447.71543,424.07997)"/>
<use data-text="a" xlink:href="#font_4_21" transform="matrix(24,0,0,-24,453.0914,424.07997)"/>
<use data-text="s" xlink:href="#font_4_38" transform="matrix(24,0,0,-24,466.4666,424.07997)"/>
<use data-text="t" xlink:href="#font_4_39" transform="matrix(24,0,0,-24,478.4666,424.07997)"/>
<use data-text="P" xlink:href="#font_4_15" transform="matrix(24,0,0,-24,485.0906,424.07997)"/>
<use data-text="r" xlink:href="#font_4_37" transform="matrix(24,0,0,-24,501.09144,424.07997)"/>
<use data-text="e" xlink:href="#font_4_25" transform="matrix(24,0,0,-24,509.0906,424.07997)"/>
<use data-text="s" xlink:href="#font_4_38" transform="matrix(24,0,0,-24,522.4658,424.07997)"/>
<use data-text="e" xlink:href="#font_4_25" transform="matrix(24,0,0,-24,534.4658,424.07997)"/>
<use data-text="n" xlink:href="#font_4_33" transform="matrix(24,0,0,-24,547.841,424.07997)"/>
<use data-text="c" xlink:href="#font_4_23" transform="matrix(24,0,0,-24,561.2162,424.07997)"/>
<use data-text="e" xlink:href="#font_4_25" transform="matrix(24,0,0,-24,573.2162,424.07997)"/>
<use data-text="A" xlink:href="#font_4_3" transform="matrix(24,0,0,-24,586.59146,424.07997)"/>
<use data-text="b" xlink:href="#font_4_22" transform="matrix(24,0,0,-24,602.5922,424.07997)"/>
<use data-text="s" xlink:href="#font_4_38" transform="matrix(24,0,0,-24,615.9674,424.07997)"/>
<use data-text="e" xlink:href="#font_4_25" transform="matrix(24,0,0,-24,627.9674,424.07997)"/>
<use data-text="n" xlink:href="#font_4_33" transform="matrix(24,0,0,-24,641.3426,424.07997)"/>
<use data-text="c" xlink:href="#font_4_23" transform="matrix(24,0,0,-24,654.7178,424.07997)"/>
<use data-text="e" xlink:href="#font_4_25" transform="matrix(24,0,0,-24,666.7178,424.07997)"/>
<use data-text="." xlink:href="#font_4_2" transform="matrix(24,0,0,-24,680.093,424.07997)"/>
<use data-text="p" xlink:href="#font_4_35" transform="matrix(24,0,0,-24,686.71707,424.07997)"/>
<use data-text="y" xlink:href="#font_4_42" transform="matrix(24,0,0,-24,700.0922,424.07997)"/>
<path transform="matrix(1,0,0,-1,0,1134)" d="M396.6927 565.2145H749.7379V528.8629H396.6927Z" fill="#ffffff"/>
<path transform="matrix(.00007874016,0,0,.00007874016,396.6927,568.7855)" stroke-width="38100" stroke-linecap="butt" stroke-linejoin="round" fill="none" stroke="#000000" d="M0 0H4483674V461665H0Z"/>
<use data-text="b" xlink:href="#font_4_22" transform="matrix(24,0,0,-24,472.4028,595.43997)"/>
<use data-text="l" xlink:href="#font_4_31" transform="matrix(24,0,0,-24,485.778,595.43997)"/>
<use data-text="a" xlink:href="#font_4_21" transform="matrix(24,0,0,-24,491.154,595.43997)"/>
<use data-text="s" xlink:href="#font_4_38" transform="matrix(24,0,0,-24,504.5292,595.43997)"/>
<use data-text="t" xlink:href="#font_4_39" transform="matrix(24,0,0,-24,516.5292,595.43997)"/>
<use data-text="P" xlink:href="#font_4_15" transform="matrix(24,0,0,-24,523.1532,595.43997)"/>
<use data-text="r" xlink:href="#font_4_37" transform="matrix(24,0,0,-24,539.154,595.43997)"/>
<use data-text="o" xlink:href="#font_4_34" transform="matrix(24,0,0,-24,547.1532,595.43997)"/>
<use data-text="c" xlink:href="#font_4_23" transform="matrix(24,0,0,-24,560.5284,595.43997)"/>
<use data-text="e" xlink:href="#font_4_25" transform="matrix(24,0,0,-24,572.5284,595.43997)"/>
<use data-text="s" xlink:href="#font_4_38" transform="matrix(24,0,0,-24,585.9036,595.43997)"/>
<use data-text="s" xlink:href="#font_4_38" transform="matrix(24,0,0,-24,597.9036,595.43997)"/>
<use data-text="i" xlink:href="#font_4_29" transform="matrix(24,0,0,-24,609.9036,595.43997)"/>
<use data-text="n" xlink:href="#font_4_33" transform="matrix(24,0,0,-24,615.2796,595.43997)"/>
<use data-text="g" xlink:href="#font_4_27" transform="matrix(24,0,0,-24,628.6548,595.43997)"/>
<use data-text="." xlink:href="#font_4_2" transform="matrix(24,0,0,-24,642.03,595.43997)"/>
<use data-text="p" xlink:href="#font_4_35" transform="matrix(24,0,0,-24,648.654,595.43997)"/>
<use data-text="y" xlink:href="#font_4_42" transform="matrix(24,0,0,-24,662.0292,595.43997)"/>
<path transform="matrix(1,0,0,-1,0,1134)" d="M398.8103 381.0412H751.8555V344.6896H398.8103Z" fill="#ffffff"/>
<path transform="matrix(.00007874016,0,0,.00007874016,398.8103,752.9588)" stroke-width="38100" stroke-linecap="butt" stroke-linejoin="round" fill="none" stroke="#000000" d="M0 0H4483674V461665H0Z"/>
<use data-text="a" xlink:href="#font_4_21" transform="matrix(24,0,0,-24,523.8704,779.52)"/>
<use data-text="l" xlink:href="#font_4_31" transform="matrix(24,0,0,-24,537.2456,779.52)"/>
<use data-text="i" xlink:href="#font_4_29" transform="matrix(24,0,0,-24,542.62887,779.52)"/>
<use data-text="g" xlink:href="#font_4_27" transform="matrix(24,0,0,-24,548.012,779.52)"/>
<use data-text="n" xlink:href="#font_4_33" transform="matrix(24,0,0,-24,561.3872,779.52)"/>
<use data-text="e" xlink:href="#font_4_25" transform="matrix(24,0,0,-24,574.76248,779.52)"/>
<use data-text="r" xlink:href="#font_4_37" transform="matrix(24,0,0,-24,588.13766,779.52)"/>
<use data-text="." xlink:href="#font_4_2" transform="matrix(24,0,0,-24,594.81686,779.52)"/>
<use data-text="p" xlink:href="#font_4_35" transform="matrix(24,0,0,-24,601.448,779.52)"/>
<use data-text="y" xlink:href="#font_4_42" transform="matrix(24,0,0,-24,614.82327,779.52)"/>
<path transform="matrix(1,0,0,-1,0,1134)" d="M398.8103 193.7041H751.8555V157.3525H398.8103Z" fill="#ffffff"/>
<path transform="matrix(.00007874016,0,0,.00007874016,398.8103,940.2959)" stroke-width="38100" stroke-linecap="butt" stroke-linejoin="round" fill="none" stroke="#000000" d="M0 0H4483674V461665H0Z"/>
<use data-text="u" xlink:href="#font_4_40" transform="matrix(24,0,0,-24,500.3729,966.95999)"/>
<use data-text="p" xlink:href="#font_4_35" transform="matrix(24,0,0,-24,513.7481,966.95999)"/>
<use data-text="d" xlink:href="#font_4_24" transform="matrix(24,0,0,-24,527.1233,966.95999)"/>
<use data-text="a" xlink:href="#font_4_21" transform="matrix(24,0,0,-24,540.4985,966.95999)"/>
<use data-text="t" xlink:href="#font_4_39" transform="matrix(24,0,0,-24,553.8737,966.95999)"/>
<use data-text="e" xlink:href="#font_4_25" transform="matrix(24,0,0,-24,560.5049,966.95999)"/>
<use data-text="T" xlink:href="#font_4_18" transform="matrix(24,0,0,-24,573.8801,966.95999)"/>
<use data-text="S" xlink:href="#font_4_17" transform="matrix(24,0,0,-24,588.5033,966.95999)"/>
<use data-text="V" xlink:href="#font_4_20" transform="matrix(24,0,0,-24,604.4945,966.95999)"/>
<use data-text="." xlink:href="#font_4_2" transform="matrix(24,0,0,-24,618.2777,966.95999)"/>
<use data-text="p" xlink:href="#font_4_35" transform="matrix(24,0,0,-24,624.90896,966.95999)"/>
<use data-text="y" xlink:href="#font_4_42" transform="matrix(24,0,0,-24,638.2841,966.95999)"/>
<use data-text="G" xlink:href="#font_4_8" transform="matrix(24,0,0,-24,138.9251,54)"/>
<use data-text="e" xlink:href="#font_4_25" transform="matrix(24,0,0,-24,157.5491,54)"/>
<use data-text="n" xlink:href="#font_4_33" transform="matrix(24,0,0,-24,170.9243,54)"/>
<use data-text="B" xlink:href="#font_4_4" transform="matrix(24,0,0,-24,184.2995,54)"/>
<use data-text="a" xlink:href="#font_4_21" transform="matrix(24,0,0,-24,200.30031,54)"/>
<use data-text="n" xlink:href="#font_4_33" transform="matrix(24,0,0,-24,213.6755,54)"/>
<use data-text="k" xlink:href="#font_4_30" transform="matrix(24,0,0,-24,227.0507,54)"/>
<use data-text=" " xlink:href="#font_4_1" transform="matrix(24,0,0,-24,239.0507,54)"/>
<use data-text="I" xlink:href="#font_4_10" transform="matrix(24,0,0,-24,245.6747,54)"/>
<use data-text="D" xlink:href="#font_4_6" transform="matrix(24,0,0,-24,252.2987,54)"/>
<use data-text=" " xlink:href="#font_4_1" transform="matrix(24,0,0,-24,269.67469,54)"/>
<use data-text="l" xlink:href="#font_4_31" transform="matrix(24,0,0,-24,276.2987,54)"/>
<use data-text="i" xlink:href="#font_4_29" transform="matrix(24,0,0,-24,281.67469,54)"/>
<use data-text="s" xlink:href="#font_4_38" transform="matrix(24,0,0,-24,287.05073,54)"/>
<use data-text="t" xlink:href="#font_4_39" transform="matrix(24,0,0,-24,299.05073,54)"/>
<use data-text="G" xlink:href="#font_4_8" transform="matrix(24,0,0,-24,801.4813,107.76001)"/>
<use data-text="e" xlink:href="#font_4_25" transform="matrix(24,0,0,-24,820.10537,107.76001)"/>
<use data-text="n" xlink:href="#font_4_33" transform="matrix(24,0,0,-24,833.4805,107.76001)"/>
<use data-text="B" xlink:href="#font_4_4" transform="matrix(24,0,0,-24,846.8557,107.76001)"/>
<use data-text="a" xlink:href="#font_4_21" transform="matrix(24,0,0,-24,862.8565,107.76001)"/>
<use data-text="n" xlink:href="#font_4_33" transform="matrix(24,0,0,-24,876.23178,107.76001)"/>
<use data-text="k" xlink:href="#font_4_30" transform="matrix(24,0,0,-24,889.60696,107.76001)"/>
<use data-text=" " xlink:href="#font_4_1" transform="matrix(24,0,0,-24,901.60696,107.76001)"/>
<use data-text="f" xlink:href="#font_4_26" transform="matrix(24,0,0,-24,908.23098,107.76001)"/>
<use data-text="i" xlink:href="#font_4_29" transform="matrix(24,0,0,-24,914.8549,107.76001)"/>
<use data-text="l" xlink:href="#font_4_31" transform="matrix(24,0,0,-24,920.23098,107.76001)"/>
<use data-text="e" xlink:href="#font_4_25" transform="matrix(24,0,0,-24,925.60696,107.76001)"/>
<use data-text="R" xlink:href="#font_4_16" transform="matrix(24,0,0,-24,10.29437,455.52003)"/>
<use data-text="e" xlink:href="#font_4_25" transform="matrix(24,0,0,-24,27.670369,455.52003)"/>
<use data-text="f" xlink:href="#font_4_26" transform="matrix(24,0,0,-24,41.04557,455.52003)"/>
<use data-text="e" xlink:href="#font_4_25" transform="matrix(24,0,0,-24,47.66957,455.52003)"/>
<use data-text="r" xlink:href="#font_4_37" transform="matrix(24,0,0,-24,61.044775,455.52003)"/>
<use data-text="e" xlink:href="#font_4_25" transform="matrix(24,0,0,-24,69.043979,455.52003)"/>
<use data-text="n" xlink:href="#font_4_33" transform="matrix(24,0,0,-24,82.419178,455.52003)"/>
<use data-text="c" xlink:href="#font_4_23" transform="matrix(24,0,0,-24,95.79438,455.52003)"/>
<use data-text="e" xlink:href="#font_4_25" transform="matrix(24,0,0,-24,107.79438,455.52003)"/>
<use data-text=" " xlink:href="#font_4_1" transform="matrix(24,0,0,-24,121.16958,455.52003)"/>
<use data-text="g" xlink:href="#font_4_27" transform="matrix(24,0,0,-24,127.79357,455.52003)"/>
<use data-text="e" xlink:href="#font_4_25" transform="matrix(24,0,0,-24,141.16878,455.52003)"/>
<use data-text="n" xlink:href="#font_4_33" transform="matrix(24,0,0,-24,154.54398,455.52003)"/>
<use data-text="e" xlink:href="#font_4_25" transform="matrix(24,0,0,-24,167.91918,455.52003)"/>
<use data-text=" " xlink:href="#font_4_1" transform="matrix(24,0,0,-24,181.29438,455.52003)"/>
<use data-text="F" xlink:href="#font_4_7" transform="matrix(24,0,0,-24,187.91837,455.52003)"/>
<use data-text="A" xlink:href="#font_4_3" transform="matrix(24,0,0,-24,201.21916,455.52003)"/>
<use data-text="S" xlink:href="#font_4_17" transform="matrix(24,0,0,-24,217.21996,455.52003)"/>
<use data-text="T" xlink:href="#font_4_18" transform="matrix(24,0,0,-24,233.22075,455.52003)"/>
<use data-text="A" xlink:href="#font_4_3" transform="matrix(24,0,0,-24,246.06554,455.52003)"/>
<use data-text=" " xlink:href="#font_4_1" transform="matrix(24,0,0,-24,260.74153,455.52003)"/>
<use data-text="f" xlink:href="#font_4_26" transform="matrix(24,0,0,-24,267.36555,455.52003)"/>
<use data-text="i" xlink:href="#font_4_29" transform="matrix(24,0,0,-24,273.98957,455.52003)"/>
<use data-text="l" xlink:href="#font_4_31" transform="matrix(24,0,0,-24,279.36555,455.52003)"/>
<use data-text="e" xlink:href="#font_4_25" transform="matrix(24,0,0,-24,284.74153,455.52003)"/>
<use data-text="R" xlink:href="#font_4_16" transform="matrix(24,0,0,-24,9.759842,395.76)"/>
<use data-text="e" xlink:href="#font_4_25" transform="matrix(24,0,0,-24,27.135842,395.76)"/>
<use data-text="f" xlink:href="#font_4_26" transform="matrix(24,0,0,-24,40.51104,395.76)"/>
<use data-text="e" xlink:href="#font_4_25" transform="matrix(24,0,0,-24,47.135046,395.76)"/>
<use data-text="r" xlink:href="#font_4_37" transform="matrix(24,0,0,-24,60.510248,395.76)"/>
<use data-text="e" xlink:href="#font_4_25" transform="matrix(24,0,0,-24,68.509449,395.76)"/>
<use data-text="n" xlink:href="#font_4_33" transform="matrix(24,0,0,-24,81.88464,395.76)"/>
<use data-text="c" xlink:href="#font_4_23" transform="matrix(24,0,0,-24,95.25985,395.76)"/>
<use data-text="e" xlink:href="#font_4_25" transform="matrix(24,0,0,-24,107.25985,395.76)"/>
<use data-text=" " xlink:href="#font_4_1" transform="matrix(24,0,0,-24,120.63505,395.76)"/>
<use data-text="G" xlink:href="#font_4_8" transform="matrix(24,0,0,-24,127.25904,395.76)"/>
<use data-text="e" xlink:href="#font_4_25" transform="matrix(24,0,0,-24,145.88304,395.76)"/>
<use data-text="n" xlink:href="#font_4_33" transform="matrix(24,0,0,-24,159.25824,395.76)"/>
<use data-text="B" xlink:href="#font_4_4" transform="matrix(24,0,0,-24,172.63344,395.76)"/>
<use data-text="a" xlink:href="#font_4_21" transform="matrix(24,0,0,-24,188.63423,395.76)"/>
<use data-text="n" xlink:href="#font_4_33" transform="matrix(24,0,0,-24,202.00945,395.76)"/>
<use data-text="k" xlink:href="#font_4_30" transform="matrix(24,0,0,-24,215.38465,395.76)"/>
<use data-text=" " xlink:href="#font_4_1" transform="matrix(24,0,0,-24,227.38465,395.76)"/>
<use data-text="I" xlink:href="#font_4_10" transform="matrix(24,0,0,-24,234.00864,395.76)"/>
<use data-text="D" xlink:href="#font_4_6" transform="matrix(24,0,0,-24,240.63263,395.76)"/>
<use data-text=" " xlink:href="#font_4_1" transform="matrix(24,0,0,-24,258.0086,395.76)"/>
<use data-text="l" xlink:href="#font_4_31" transform="matrix(24,0,0,-24,264.63264,395.76)"/>
<use data-text="i" xlink:href="#font_4_29" transform="matrix(24,0,0,-24,270.0086,395.76)"/>
<use data-text="s" xlink:href="#font_4_38" transform="matrix(24,0,0,-24,275.38459,395.76)"/>
<use data-text="t" xlink:href="#font_4_39" transform="matrix(24,0,0,-24,287.38459,395.76)"/>
<use data-text="P" xlink:href="#font_4_15" transform="matrix(24,0,0,-24,814.3588,257.52003)"/>
<use data-text="r" xlink:href="#font_4_37" transform="matrix(24,0,0,-24,830.3596,257.52003)"/>
<use data-text="e" xlink:href="#font_4_25" transform="matrix(24,0,0,-24,838.3588,257.52003)"/>
<use data-text="s" xlink:href="#font_4_38" transform="matrix(24,0,0,-24,851.734,257.52003)"/>
<use data-text="e" xlink:href="#font_4_25" transform="matrix(24,0,0,-24,863.734,257.52003)"/>
<use data-text="n" xlink:href="#font_4_33" transform="matrix(24,0,0,-24,877.10928,257.52003)"/>
<use data-text="c" xlink:href="#font_4_23" transform="matrix(24,0,0,-24,890.48446,257.52003)"/>
<use data-text="e" xlink:href="#font_4_25" transform="matrix(24,0,0,-24,902.48446,257.52003)"/>
<use data-text="A" xlink:href="#font_4_3" transform="matrix(24,0,0,-24,915.8596,257.52003)"/>
<use data-text="b" xlink:href="#font_4_22" transform="matrix(24,0,0,-24,931.8604,257.52003)"/>
<use data-text="s" xlink:href="#font_4_38" transform="matrix(24,0,0,-24,945.23568,257.52003)"/>
<use data-text="e" xlink:href="#font_4_25" transform="matrix(24,0,0,-24,957.23568,257.52003)"/>
<use data-text="n" xlink:href="#font_4_33" transform="matrix(24,0,0,-24,970.61087,257.52003)"/>
<use data-text="c" xlink:href="#font_4_23" transform="matrix(24,0,0,-24,983.986,257.52003)"/>
<use data-text="e" xlink:href="#font_4_25" transform="matrix(24,0,0,-24,995.986,257.52003)"/>
<use data-text="." xlink:href="#font_4_2" transform="matrix(24,0,0,-24,1009.3612,257.52003)"/>
<use data-text="T" xlink:href="#font_4_18" transform="matrix(24,0,0,-24,1015.9852,257.52003)"/>
<use data-text="S" xlink:href="#font_4_17" transform="matrix(24,0,0,-24,1030.6109,257.52003)"/>
<use data-text="V" xlink:href="#font_4_20" transform="matrix(24,0,0,-24,1046.6116,257.52003)"/>
<path transform="matrix(1,0,0,-1,0,1134)" d="M849.6927 824.0265H1027.8V787.6749H849.6927Z" fill="#ffffff"/>
<path transform="matrix(.00007874016,0,0,.00007874016,849.6927,309.9735)" stroke-width="38100" stroke-linecap="butt" stroke-linejoin="round" fill="none" stroke="#000000" d="M0 0H2261963V461665H0Z"/>
<use data-text="h" xlink:href="#font_4_28" transform="matrix(24,0,0,-24,875.9963,336.47999)"/>
<use data-text="e" xlink:href="#font_4_25" transform="matrix(24,0,0,-24,889.37149,336.47999)"/>
<use data-text="a" xlink:href="#font_4_21" transform="matrix(24,0,0,-24,902.7467,336.47999)"/>
<use data-text="t" xlink:href="#font_4_39" transform="matrix(24,0,0,-24,916.1219,336.47999)"/>
<use data-text="M" xlink:href="#font_4_13" transform="matrix(24,0,0,-24,922.75308,336.47999)"/>
<use data-text="a" xlink:href="#font_4_21" transform="matrix(24,0,0,-24,942.75228,336.47999)"/>
<use data-text="p" xlink:href="#font_4_35" transform="matrix(24,0,0,-24,956.1275,336.47999)"/>
<use data-text="." xlink:href="#font_4_2" transform="matrix(24,0,0,-24,969.5027,336.47999)"/>
<use data-text="p" xlink:href="#font_4_35" transform="matrix(24,0,0,-24,976.1339,336.47999)"/>
<use data-text="y" xlink:href="#font_4_42" transform="matrix(24,0,0,-24,989.5091,336.47999)"/>
<use data-text="H" xlink:href="#font_4_9" transform="matrix(24,0,0,-24,865.6463,408)"/>
<use data-text="e" xlink:href="#font_4_25" transform="matrix(24,0,0,-24,883.0223,408)"/>
<use data-text="a" xlink:href="#font_4_21" transform="matrix(24,0,0,-24,896.3903,408)"/>
<use data-text="t" xlink:href="#font_4_39" transform="matrix(24,0,0,-24,909.7583,408)"/>
<use data-text=" " xlink:href="#font_4_1" transform="matrix(24,0,0,-24,916.3823,408)"/>
<use data-text="m" xlink:href="#font_4_32" transform="matrix(24,0,0,-24,923.0063,408)"/>
<use data-text="a" xlink:href="#font_4_21" transform="matrix(24,0,0,-24,942.9983,408)"/>
<use data-text="p" xlink:href="#font_4_35" transform="matrix(24,0,0,-24,956.36636,408)"/>
<use data-text=" " xlink:href="#font_4_1" transform="matrix(24,0,0,-24,969.7343,408)"/>
<use data-text="f" xlink:href="#font_4_26" transform="matrix(24,0,0,-24,976.3583,408)"/>
<use data-text="i" xlink:href="#font_4_29" transform="matrix(24,0,0,-24,982.9823,408)"/>
<use data-text="g" xlink:href="#font_4_27" transform="matrix(24,0,0,-24,988.3583,408)"/>
<use data-text="u" xlink:href="#font_4_40" transform="matrix(24,0,0,-24,1001.7263,408)"/>
<use data-text="r" xlink:href="#font_4_37" transform="matrix(24,0,0,-24,1015.0943,408)"/>
<use data-text="e" xlink:href="#font_4_25" transform="matrix(24,0,0,-24,1023.0863,408)"/>
<use data-text="B" xlink:href="#font_4_4" transform="matrix(24,0,0,-24,862.0138,518.88)"/>
<use data-text="L" xlink:href="#font_4_12" transform="matrix(24,0,0,-24,878.0146,518.88)"/>
<use data-text="A" xlink:href="#font_4_3" transform="matrix(24,0,0,-24,891.3898,518.88)"/>
<use data-text="S" xlink:href="#font_4_17" transform="matrix(24,0,0,-24,907.3906,518.88)"/>
<use data-text="T" xlink:href="#font_4_18" transform="matrix(24,0,0,-24,923.3914,518.88)"/>
<use data-text=" " xlink:href="#font_4_1" transform="matrix(24,0,0,-24,937.5802,518.88)"/>
<use data-text="r" xlink:href="#font_4_37" transform="matrix(24,0,0,-24,944.2042,518.88)"/>
<use data-text="e" xlink:href="#font_4_25" transform="matrix(24,0,0,-24,952.20339,518.88)"/>
<use data-text="s" xlink:href="#font_4_38" transform="matrix(24,0,0,-24,965.5786,518.88)"/>
<use data-text="u" xlink:href="#font_4_40" transform="matrix(24,0,0,-24,977.5786,518.88)"/>
<use data-text="l" xlink:href="#font_4_31" transform="matrix(24,0,0,-24,990.9538,518.88)"/>
<use data-text="t" xlink:href="#font_4_39" transform="matrix(24,0,0,-24,996.32986,518.88)"/>
<use data-text="s" xlink:href="#font_4_38" transform="matrix(24,0,0,-24,1002.9538,518.88)"/>
<use data-text="U" xlink:href="#font_4_19" transform="matrix(24,0,0,-24,812.5363,667.67996)"/>
<use data-text="n" xlink:href="#font_4_33" transform="matrix(24,0,0,-24,829.9123,667.67996)"/>
<use data-text="a" xlink:href="#font_4_21" transform="matrix(24,0,0,-24,843.28036,667.67996)"/>
<use data-text="l" xlink:href="#font_4_31" transform="matrix(24,0,0,-24,856.6483,667.67996)"/>
<use data-text="i" xlink:href="#font_4_29" transform="matrix(24,0,0,-24,862.0243,667.67996)"/>
<use data-text="g" xlink:href="#font_4_27" transform="matrix(24,0,0,-24,867.4003,667.67996)"/>
<use data-text="n" xlink:href="#font_4_33" transform="matrix(24,0,0,-24,880.7683,667.67996)"/>
<use data-text="e" xlink:href="#font_4_25" transform="matrix(24,0,0,-24,894.13638,667.67996)"/>
<use data-text="d" xlink:href="#font_4_24" transform="matrix(24,0,0,-24,907.50436,667.67996)"/>
<use data-text=" " xlink:href="#font_4_1" transform="matrix(24,0,0,-24,920.8723,667.67996)"/>
<use data-text="m" xlink:href="#font_4_32" transform="matrix(24,0,0,-24,927.5363,667.67996)"/>
<use data-text="u" xlink:href="#font_4_40" transform="matrix(24,0,0,-24,947.5355,667.67996)"/>
<use data-text="l" xlink:href="#font_4_31" transform="matrix(24,0,0,-24,960.9107,667.67996)"/>
<use data-text="t" xlink:href="#font_4_39" transform="matrix(24,0,0,-24,966.29397,667.67996)"/>
<use data-text="i" xlink:href="#font_4_29" transform="matrix(24,0,0,-24,972.9251,667.67996)"/>
<use data-text="F" xlink:href="#font_4_7" transform="matrix(24,0,0,-24,978.3083,667.67996)"/>
<use data-text="A" xlink:href="#font_4_3" transform="matrix(24,0,0,-24,991.6115,667.67996)"/>
<use data-text="S" xlink:href="#font_4_17" transform="matrix(24,0,0,-24,1007.6027,667.67996)"/>
<use data-text="T" xlink:href="#font_4_18" transform="matrix(24,0,0,-24,1023.59396,667.67996)"/>
<use data-text="A" xlink:href="#font_4_3" transform="matrix(24,0,0,-24,1036.4412,667.67996)"/>
<use data-text="s" xlink:href="#font_4_38" transform="matrix(24,0,0,-24,1052.4324,667.67996)"/>
<use data-text="A" xlink:href="#font_4_3" transform="matrix(24,0,0,-24,826.5988,856.0801)"/>
<use data-text="l" xlink:href="#font_4_31" transform="matrix(24,0,0,-24,842.5996,856.0801)"/>
<use data-text="i" xlink:href="#font_4_29" transform="matrix(24,0,0,-24,847.96847,856.0801)"/>
<use data-text="g" xlink:href="#font_4_27" transform="matrix(24,0,0,-24,853.3372,856.0801)"/>
<use data-text="n" xlink:href="#font_4_33" transform="matrix(24,0,0,-24,866.72207,856.0801)"/>
<use data-text="e" xlink:href="#font_4_25" transform="matrix(24,0,0,-24,880.1068,856.0801)"/>
<use data-text="d" xlink:href="#font_4_24" transform="matrix(24,0,0,-24,893.49166,856.0801)"/>
<use data-text=" " xlink:href="#font_4_1" transform="matrix(24,0,0,-24,906.8764,856.0801)"/>
<use data-text="m" xlink:href="#font_4_32" transform="matrix(24,0,0,-24,913.4738,856.0801)"/>
<use data-text="u" xlink:href="#font_4_40" transform="matrix(24,0,0,-24,933.473,856.0801)"/>
<use data-text="l" xlink:href="#font_4_31" transform="matrix(24,0,0,-24,946.8482,856.0801)"/>
<use data-text="t" xlink:href="#font_4_39" transform="matrix(24,0,0,-24,952.23147,856.0801)"/>
<use data-text="i" xlink:href="#font_4_29" transform="matrix(24,0,0,-24,958.8626,856.0801)"/>
<use data-text="F" xlink:href="#font_4_7" transform="matrix(24,0,0,-24,964.2458,856.0801)"/>
<use data-text="A" xlink:href="#font_4_3" transform="matrix(24,0,0,-24,977.549,856.0801)"/>
<use data-text="S" xlink:href="#font_4_17" transform="matrix(24,0,0,-24,993.5402,856.0801)"/>
<use data-text="T" xlink:href="#font_4_18" transform="matrix(24,0,0,-24,1009.53146,856.0801)"/>
<use data-text="A" xlink:href="#font_4_3" transform="matrix(24,0,0,-24,1022.3786,856.0801)"/>
<use data-text="s" xlink:href="#font_4_38" transform="matrix(24,0,0,-24,1038.3699,856.0801)"/>
<use data-text="U" xlink:href="#font_4_19" transform="matrix(24,0,0,-24,906.5387,941.28)"/>
<use data-text="p" xlink:href="#font_4_35" transform="matrix(24,0,0,-24,923.9147,941.28)"/>
<use data-text="d" xlink:href="#font_4_24" transform="matrix(24,0,0,-24,937.2827,941.28)"/>
<use data-text="a" xlink:href="#font_4_21" transform="matrix(24,0,0,-24,950.6507,941.28)"/>
<use data-text="t" xlink:href="#font_4_39" transform="matrix(24,0,0,-24,964.0187,941.28)"/>
<use data-text="e" xlink:href="#font_4_25" transform="matrix(24,0,0,-24,970.6427,941.28)"/>
<use data-text="d" xlink:href="#font_4_24" transform="matrix(24,0,0,-24,984.0107,941.28)"/>
<use data-text="." xlink:href="#font_4_2" transform="matrix(24,0,0,-24,997.3787,941.28)"/>
<use data-text="T" xlink:href="#font_4_18" transform="matrix(24,0,0,-24,1004.0027,941.28)"/>
<use data-text="S" xlink:href="#font_4_17" transform="matrix(24,0,0,-24,1018.6187,941.28)"/>
<use data-text="V" xlink:href="#font_4_20" transform="matrix(24,0,0,-24,1034.6267,941.28)"/>
<path transform="matrix(1,0,0,-1,0,1134)" d="M889.8101 140.1815H1067.917V103.8299H889.8101Z" fill="#ffffff"/>
<path transform="matrix(.00007874016,0,0,.00007874016,889.8101,993.8185)" stroke-width="38100" stroke-linecap="butt" stroke-linejoin="round" fill="none" stroke="#000000" d="M0 0H2261963V461665H0Z"/>
<use data-text="h" xlink:href="#font_4_28" transform="matrix(24,0,0,-24,916.1138,1020.48)"/>
<use data-text="e" xlink:href="#font_4_25" transform="matrix(24,0,0,-24,929.48898,1020.48)"/>
<use data-text="a" xlink:href="#font_4_21" transform="matrix(24,0,0,-24,942.8642,1020.48)"/>
<use data-text="t" xlink:href="#font_4_39" transform="matrix(24,0,0,-24,956.2394,1020.48)"/>
<use data-text="M" xlink:href="#font_4_13" transform="matrix(24,0,0,-24,962.87057,1020.48)"/>
<use data-text="a" xlink:href="#font_4_21" transform="matrix(24,0,0,-24,982.86978,1020.48)"/>
<use data-text="p" xlink:href="#font_4_35" transform="matrix(24,0,0,-24,996.245,1020.48)"/>
<use data-text="." xlink:href="#font_4_2" transform="matrix(24,0,0,-24,1009.6202,1020.48)"/>
<use data-text="p" xlink:href="#font_4_35" transform="matrix(24,0,0,-24,1016.25137,1020.48)"/>
<use data-text="y" xlink:href="#font_4_42" transform="matrix(24,0,0,-24,1029.6266,1020.48)"/>
<use data-text="H" xlink:href="#font_4_9" transform="matrix(24,0,0,-24,905.7637,1091.76)"/>
<use data-text="e" xlink:href="#font_4_25" transform="matrix(24,0,0,-24,923.13967,1091.76)"/>
<use data-text="a" xlink:href="#font_4_21" transform="matrix(24,0,0,-24,936.5077,1091.76)"/>
<use data-text="t" xlink:href="#font_4_39" transform="matrix(24,0,0,-24,949.8757,1091.76)"/>
<use data-text=" " xlink:href="#font_4_1" transform="matrix(24,0,0,-24,956.4997,1091.76)"/>
<use data-text="m" xlink:href="#font_4_32" transform="matrix(24,0,0,-24,963.12368,1091.76)"/>
<use data-text="a" xlink:href="#font_4_21" transform="matrix(24,0,0,-24,983.11569,1091.76)"/>
<use data-text="p" xlink:href="#font_4_35" transform="matrix(24,0,0,-24,996.4837,1091.76)"/>
<use data-text=" " xlink:href="#font_4_1" transform="matrix(24,0,0,-24,1009.8517,1091.76)"/>
<use data-text="f" xlink:href="#font_4_26" transform="matrix(24,0,0,-24,1016.4757,1091.76)"/>
<use data-text="i" xlink:href="#font_4_29" transform="matrix(24,0,0,-24,1023.0997,1091.76)"/>
<use data-text="g" xlink:href="#font_4_27" transform="matrix(24,0,0,-24,1028.4757,1091.76)"/>
<use data-text="u" xlink:href="#font_4_40" transform="matrix(24,0,0,-24,1041.8436,1091.76)"/>
<use data-text="r" xlink:href="#font_4_37" transform="matrix(24,0,0,-24,1055.2117,1091.76)"/>
<use data-text="e" xlink:href="#font_4_25" transform="matrix(24,0,0,-24,1063.2036,1091.76)"/>
<path transform="matrix(1,0,0,-1,0,1134)" d="M570 1045.8 570.0001 958.2H564.0001L564 1045.8ZM576.0001 961.2 567.0001 943.2 558.0001 961.2Z" fill="#5561b7"/>
<path transform="matrix(1,0,0,-1,0,1134)" d="M570 856.8 570.0001 769.2H564.0001L564 856.8ZM576.0001 772.2 567.0001 754.2 558.0001 772.2Z" fill="#5561b7"/>
<path transform="matrix(1,0,0,-1,0,1134)" d="M570 685.8 570.0001 598.2H564.0001L564 685.8ZM576.0001 601.2 567.0001 583.2 558.0001 601.2Z" fill="#5561b7"/>
<path transform="matrix(1,0,0,-1,0,1134)" d="M570 509.4 570.0001 421.8H564.0001L564 509.4ZM576.0001 424.8 567.0001 406.8 558.0001 424.8Z" fill="#5561b7"/>
<path transform="matrix(1,0,0,-1,0,1134)" d="M570 320.4 570.0001 232.8H564.0001L564 320.4ZM576.0001 235.8 567.0001 217.8 558.0001 235.8Z" fill="#5561b7"/>
<path transform="matrix(1,0,0,-1,0,1134)" d="M314.11 1091.506H370.7143V1085.506H314.11ZM367.7143 1097.506 385.7143 1088.506 367.7143 1079.506Z" fill="#af4a8c"/>
<path transform="matrix(1,0,0,-1,0,1134)" d="M303.3045 748.797 320.8367 744.7202 319.4778 738.8762 301.9456 742.9529ZM326.6808 743.3613 344.2131 739.2845 342.8542 733.4405 325.3219 737.5172ZM350.0572 737.9256 367.5894 733.8488 366.2305 728.0048 348.6982 732.0815ZM371.209 739.1673 386.7029 726.3243 367.1323 721.635Z" fill="#bfbfbf"/>
<path transform="matrix(1,0,0,-1,0,1134)" d="M304.0143 681.6385 321.4558 686.0875 319.9727 691.9014 302.5312 687.4523ZM327.2696 687.5706 344.7111 692.0196 343.2281 697.8334 325.7866 693.3844ZM350.5249 693.5026 367.9664 697.9516 366.4834 703.7655 349.0419 699.3164ZM373.7803 699.4346 376.2848 700.0735 374.8018 705.8873 372.2973 705.2485ZM374.8609 693.5182 390.0779 706.6879 370.4118 710.9597Z" fill="#bfbfbf"/>
<path transform="matrix(1,0,0,-1,0,1134)" d="M757.6252 1089.567H786.3334V1083.567H757.6252ZM783.3334 1095.567 801.3334 1086.567 783.3334 1077.567Z" fill="#af4a8c"/>
<path transform="matrix(1,0,0,-1,0,1134)" d="M761.5162 1075.225 788.6485 1044.664 784.1616 1040.68 757.0293 1071.242ZM791.1437 1050.89 796.3636 1031.455 777.683 1038.94Z" fill="#af4a8c"/>
<path transform="matrix(1,0,0,-1,0,1134)" d="M754.7376 1055.499 768.0981 1043.437 764.0774 1038.984 750.7169 1051.046ZM772.5516 1039.417 785.9121 1027.354 781.8913 1022.901 768.5308 1034.963ZM790.3656 1023.334 803.7261 1011.271 799.7053 1006.818 786.3448 1018.88ZM808.1796 1007.251 812.2099 1003.612 808.1892 999.1584 804.1588 1002.797ZM814.0039 1010.076 821.3333 991.3333 801.9417 996.7153Z" fill="#bfbfbf"/>
<path transform="matrix(1,0,0,-1,0,1134)" d="M735.3991 1058.999 746.809 1045.077 742.1684 1041.274 730.7585 1055.195ZM750.6122 1040.436 762.0221 1026.514 757.3815 1022.711 745.9717 1036.633ZM765.8254 1021.874 777.2352 1007.952 772.5946 1004.149 761.1848 1018.071ZM781.0385 1003.312 792.4484 989.3898 787.8078 985.5865 776.3979 999.5083ZM796.2516 984.7492 807.6615 970.8275 803.0209 967.0242 791.6111 980.9459ZM811.4647 966.1869 811.4787 966.1698 806.8382 962.3665 806.8242 962.3835ZM814.2177 972.2934 818.6667 952.6667 800.296 960.8835Z" fill="#bfbfbf"/>
<path transform="matrix(1,0,0,-1,0,1134)" d="M756.5327 904.0445 795.6252 893.2155 794.0235 887.4332 754.9309 898.2623ZM794.3358 899.7986 809.28 886.32 789.5306 882.4519Z" fill="#af4a8c"/>
<path transform="matrix(1,0,0,-1,0,1134)" d="M807.2015 876.0811 758.2996 749.4955 763.8964 747.3333 812.7984 873.9189ZM753.7837 754.456 755.6926 734.4221 770.5744 747.9695Z" fill="#af4a8c"/>
<path transform="matrix(1,0,0,-1,0,1134)" d="M940.9239 868.5543V850.5543H934.9239V868.5543ZM940.924 844.5543V842.7752H934.924V844.5543ZM946.9239 845.7752 937.924 827.7752 928.9239 845.7752Z" fill="#bfbfbf"/>
<path transform="matrix(1,0,0,-1,0,1134)" d="M941.6468 784.5543 941.6469 766.5543H935.6469L935.6468 784.5543ZM941.6469 760.5543V758.7752H935.6469V760.5543ZM947.6469 761.7752 938.6469 743.7752 929.6469 761.7752Z" fill="#bfbfbf"/>
<path transform="matrix(1,0,0,-1,0,1134)" d="M759.2634 714.3021 798.4078 698.1262 796.1163 692.581 756.9719 708.7569ZM797.9266 704.8172 811.125 689.625 791.0522 688.1816Z" fill="#af4a8c"/>
<path transform="matrix(1,0,0,-1,0,1134)" d="M757.6509 697.0932 843.1264 640.7594 839.8246 635.7496 754.3491 692.0834ZM843.9232 647.4201 854 630 834.0179 632.3907Z" fill="#af4a8c"/>
<path transform="matrix(1,0,0,-1,0,1134)" d="M855.0462 611.4914 767.1765 560.5125 770.1874 555.3227 858.0572 606.3016ZM766.7604 567.2078 755.7074 550.3902 775.7933 551.6384Z" fill="#af4a8c"/>
<path transform="matrix(1,0,0,-1,0,1134)" d="M758.4682 545.3369 801.408 500.114 797.0569 495.9826 754.1171 541.2055ZM803.6933 506.4209 809.5609 487.1707 790.6402 494.0268Z" fill="#af4a8c"/>
<path transform="matrix(1,0,0,-1,0,1134)" d="M805.5001 462.6013 764.2307 386.4113 769.5064 383.5536 810.7758 459.7436ZM760.3837 391.9069 759.7243 371.7931 776.211 383.3338Z" fill="#af4a8c"/>
<path transform="matrix(1,0,0,-1,0,1134)" d="M763.128 362.7 814.8003 308.9608 810.4753 304.8022 758.803 358.5414ZM817.046 315.2819 823.0345 296.069 804.071 302.806Z" fill="#af4a8c"/>
<path transform="matrix(1,0,0,-1,0,1134)" d="M759.4209 179.8325 887.4986 196.1305 886.7412 202.0825 758.6635 185.7845ZM885.2801 189.7998 902 201 883.0079 207.6558Z" fill="#af4a8c"/>
<path transform="matrix(1,0,0,-1,0,1134)" d="M818.1654 274.3009 767.6699 208.0254 772.4425 204.3892 822.938 270.6646ZM764.7155 214.048 760.9656 194.2758 779.0332 203.1392Z" fill="#af4a8c"/>
<path transform="matrix(1,0,0,-1,0,1134)" d="M977.7518 182.4859V164.4859H971.7518V182.4859ZM977.7518 158.4859V156.7068H971.7518V158.4859ZM983.7518 159.7068 974.7519 141.7068 965.7518 159.7068Z" fill="#bfbfbf"/>
<path transform="matrix(1,0,0,-1,0,1134)" d="M978.4747 98.486V80.486H972.4747V98.486ZM978.4748 74.486V72.707H972.4748V74.486ZM984.4747 75.707 975.4748 57.707 966.4747 75.707Z" fill="#bfbfbf"/>
<path transform="matrix(1,0,0,-1,0,1134)" d="M763.6881 169.862 789.3789 126.765 784.2252 123.693 758.5343 166.7897ZM792.9966 132.414 794.4827 112.345 777.5353 123.198Z" fill="#af4a8c"/>
<use data-text="C" xlink:href="#font_4_5" transform="matrix(24,0,0,-24,728.3739,1047.1201)"/>
<use data-text="h" xlink:href="#font_4_28" transform="matrix(24,0,0,-24,745.7499,1047.1201)"/>
<use data-text="a" xlink:href="#font_4_21" transform="matrix(24,0,0,-24,759.1179,1047.1201)"/>
<use data-text="n" xlink:href="#font_4_33" transform="matrix(24,0,0,-24,772.4859,1047.1201)"/>
<use data-text="g" xlink:href="#font_4_27" transform="matrix(24,0,0,-24,785.8539,1047.1201)"/>
<use data-text="e" xlink:href="#font_4_25" transform="matrix(24,0,0,-24,799.2219,1047.1201)"/>
<use data-text=" " xlink:href="#font_4_1" transform="matrix(24,0,0,-24,812.5899,1047.1201)"/>
<use data-text="l" xlink:href="#font_4_31" transform="matrix(24,0,0,-24,819.21389,1047.1201)"/>
<use data-text="o" xlink:href="#font_4_34" transform="matrix(24,0,0,-24,824.5899,1047.1201)"/>
<use data-text="g" xlink:href="#font_4_27" transform="matrix(24,0,0,-24,837.9579,1047.1201)"/>
<path transform="matrix(1,0,0,-1,0,1134)" d="M38.96221 331.0749H56.96221L56.9622 325.0749H38.9622ZM62.9622 331.0749H80.96221L80.9622 325.0749H62.9622ZM86.96221 331.0749H104.9622V325.0749H86.9622ZM106.0016 337.0749 124.0016 328.0748 106.0016 319.0749Z" fill="#bfbfbf"/>
<path transform="matrix(1,0,0,-1,0,1134)" d="M37.27772 285.9884 107.3171 285.9883V279.9883L37.27771 279.9884ZM104.3171 291.9883 122.3171 282.9883 104.3171 273.9883Z" fill="#5561b7"/>
<path transform="matrix(1,0,0,-1,0,1134)" d="M35.3 240.8945 105.3394 240.8944V234.8944L35.3 234.8945ZM102.3394 246.8944 120.3394 237.8944 102.3394 228.8945Z" fill="#af4a8c"/>
<use data-text="K" xlink:href="#font_4_11" transform="matrix(24,0,0,-24,162.4887,759.6)"/>
<use data-text="e" xlink:href="#font_4_25" transform="matrix(24,0,0,-24,178.4895,759.6)"/>
<use data-text="y" xlink:href="#font_4_42" transform="matrix(24,0,0,-24,191.8743,759.6)"/>
<use data-text="O" xlink:href="#font_4_14" transform="matrix(24,0,0,-24,127.5954,813.8401)"/>
<use data-text="p" xlink:href="#font_4_35" transform="matrix(24,0,0,-24,146.21939,813.8401)"/>
<use data-text="t" xlink:href="#font_4_39" transform="matrix(24,0,0,-24,159.5946,813.8401)"/>
<use data-text="i" xlink:href="#font_4_29" transform="matrix(24,0,0,-24,166.2186,813.8401)"/>
<use data-text="o" xlink:href="#font_4_34" transform="matrix(24,0,0,-24,171.5946,813.8401)"/>
<use data-text="n" xlink:href="#font_4_33" transform="matrix(24,0,0,-24,184.9698,813.8401)"/>
<use data-text="a" xlink:href="#font_4_21" transform="matrix(24,0,0,-24,198.345,813.8401)"/>
<use data-text="l" xlink:href="#font_4_31" transform="matrix(24,0,0,-24,211.72022,813.8401)"/>
<use data-text=" " xlink:href="#font_4_1" transform="matrix(24,0,0,-24,217.09622,813.8401)"/>
<use data-text="s" xlink:href="#font_4_38" transform="matrix(24,0,0,-24,223.72022,813.8401)"/>
<use data-text="t" xlink:href="#font_4_39" transform="matrix(24,0,0,-24,235.72022,813.8401)"/>
<use data-text="e" xlink:href="#font_4_25" transform="matrix(24,0,0,-24,242.34421,813.8401)"/>
<use data-text="p" xlink:href="#font_4_35" transform="matrix(24,0,0,-24,255.71942,813.8401)"/>
<use data-text="s" xlink:href="#font_4_38" transform="matrix(24,0,0,-24,269.0946,813.8401)"/>
<use data-text="S" xlink:href="#font_4_17" transform="matrix(24,0,0,-24,128.3013,858.48)"/>
<use data-text="c" xlink:href="#font_4_23" transform="matrix(24,0,0,-24,144.3021,858.48)"/>
<use data-text="r" xlink:href="#font_4_37" transform="matrix(24,0,0,-24,156.3021,858.48)"/>
<use data-text="i" xlink:href="#font_4_29" transform="matrix(24,0,0,-24,164.3013,858.48)"/>
<use data-text="p" xlink:href="#font_4_35" transform="matrix(24,0,0,-24,169.6773,858.48)"/>
<use data-text="t" xlink:href="#font_4_39" transform="matrix(24,0,0,-24,183.0525,858.48)"/>
<use data-text=" " xlink:href="#font_4_1" transform="matrix(24,0,0,-24,189.6765,858.48)"/>
<use data-text="o" xlink:href="#font_4_34" transform="matrix(24,0,0,-24,196.3005,858.48)"/>
<use data-text="r" xlink:href="#font_4_37" transform="matrix(24,0,0,-24,209.6757,858.48)"/>
<use data-text="d" xlink:href="#font_4_24" transform="matrix(24,0,0,-24,217.6749,858.48)"/>
<use data-text="e" xlink:href="#font_4_25" transform="matrix(24,0,0,-24,231.05011,858.48)"/>
<use data-text="r" xlink:href="#font_4_37" transform="matrix(24,0,0,-24,244.42531,858.48)"/>
<use data-text="I" xlink:href="#font_4_10" transform="matrix(24,0,0,-24,127.5951,905.76)"/>
<use data-text="n" xlink:href="#font_4_33" transform="matrix(24,0,0,-24,134.2191,905.76)"/>
<use data-text="p" xlink:href="#font_4_35" transform="matrix(24,0,0,-24,147.5943,905.76)"/>
<use data-text="u" xlink:href="#font_4_40" transform="matrix(24,0,0,-24,160.96952,905.76)"/>
<use data-text="t" xlink:href="#font_4_39" transform="matrix(24,0,0,-24,174.34471,905.76)"/>
<use data-text="s" xlink:href="#font_4_38" transform="matrix(24,0,0,-24,180.96872,905.76)"/>
<use data-text=" " xlink:href="#font_4_1" transform="matrix(24,0,0,-24,192.96872,905.76)"/>
<use data-text="a" xlink:href="#font_4_21" transform="matrix(24,0,0,-24,199.59272,905.76)"/>
<use data-text="n" xlink:href="#font_4_33" transform="matrix(24,0,0,-24,212.96791,905.76)"/>
<use data-text="d" xlink:href="#font_4_24" transform="matrix(24,0,0,-24,226.34311,905.76)"/>
<use data-text=" " xlink:href="#font_4_1" transform="matrix(24,0,0,-24,239.71833,905.76)"/>
<use data-text="o" xlink:href="#font_4_34" transform="matrix(24,0,0,-24,246.34232,905.76)"/>
<use data-text="u" xlink:href="#font_4_40" transform="matrix(24,0,0,-24,259.71754,905.76)"/>
<use data-text="t" xlink:href="#font_4_39" transform="matrix(24,0,0,-24,273.0927,905.76)"/>
<use data-text="p" xlink:href="#font_4_35" transform="matrix(24,0,0,-24,279.7167,905.76)"/>
<use data-text="u" xlink:href="#font_4_40" transform="matrix(24,0,0,-24,293.09193,905.76)"/>
<use data-text="t" xlink:href="#font_4_39" transform="matrix(24,0,0,-24,306.4671,905.76)"/>
<use data-text="s" xlink:href="#font_4_38" transform="matrix(24,0,0,-24,313.0911,905.76)"/>
<path transform="matrix(.00007874016,0,0,.00007874016,38.46512,929.70449)" stroke-width="38100" stroke-linecap="butt" stroke-linejoin="round" fill="none" stroke="#000000" d="M0 0H1038386V461665H0Z"/>
<use data-text="S" xlink:href="#font_4_17" transform="matrix(24,0,0,-24,130.0357,956.8799)"/>
<use data-text="c" xlink:href="#font_4_23" transform="matrix(24,0,0,-24,146.0365,956.8799)"/>
<use data-text="r" xlink:href="#font_4_37" transform="matrix(24,0,0,-24,158.0365,956.8799)"/>
<use data-text="i" xlink:href="#font_4_29" transform="matrix(24,0,0,-24,166.0357,956.8799)"/>
<use data-text="p" xlink:href="#font_4_35" transform="matrix(24,0,0,-24,171.41172,956.8799)"/>
<use data-text="t" xlink:href="#font_4_39" transform="matrix(24,0,0,-24,184.78691,956.8799)"/>
<use data-text="s" xlink:href="#font_4_38" transform="matrix(24,0,0,-24,191.4109,956.8799)"/>
<path transform="matrix(1,0,0,-1,0,1134)" d="M38.17244 151.9052H119.9351V115.5536H38.17244Z" fill="#ffeaf3"/>
<path transform="matrix(1,0,0,-1,0,1134)" d="M38.17244 104.491H119.9351V68.13943H38.17244Z" fill="#d0deff"/>
<use data-text="G" xlink:href="#font_4_8" transform="matrix(24,0,0,-24,130.0357,1007.76)"/>
<use data-text="e" xlink:href="#font_4_25" transform="matrix(24,0,0,-24,148.6597,1007.76)"/>
<use data-text="n" xlink:href="#font_4_33" transform="matrix(24,0,0,-24,162.03491,1007.76)"/>
<use data-text="B" xlink:href="#font_4_4" transform="matrix(24,0,0,-24,175.41011,1007.76)"/>
<use data-text="a" xlink:href="#font_4_21" transform="matrix(24,0,0,-24,191.41092,1007.76)"/>
<use data-text="n" xlink:href="#font_4_33" transform="matrix(24,0,0,-24,204.78612,1007.76)"/>
<use data-text="k" xlink:href="#font_4_30" transform="matrix(24,0,0,-24,218.16132,1007.76)"/>
<use data-text=" " xlink:href="#font_4_1" transform="matrix(24,0,0,-24,230.16132,1007.76)"/>
<use data-text="m" xlink:href="#font_4_32" transform="matrix(24,0,0,-24,236.78531,1007.76)"/>
<use data-text="o" xlink:href="#font_4_34" transform="matrix(24,0,0,-24,256.78453,1007.76)"/>
<use data-text="d" xlink:href="#font_4_24" transform="matrix(24,0,0,-24,270.15974,1007.76)"/>
<use data-text="e" xlink:href="#font_4_25" transform="matrix(24,0,0,-24,283.5349,1007.76)"/>
<use data-text="D" xlink:href="#font_4_6" transform="matrix(24,0,0,-24,130.0357,1053.6001)"/>
<use data-text="i" xlink:href="#font_4_29" transform="matrix(24,0,0,-24,147.41172,1053.6001)"/>
<use data-text="s" xlink:href="#font_4_38" transform="matrix(24,0,0,-24,152.7877,1053.6001)"/>
<use data-text="c" xlink:href="#font_4_23" transform="matrix(24,0,0,-24,164.7877,1053.6001)"/>
<use data-text="o" xlink:href="#font_4_34" transform="matrix(24,0,0,-24,176.7877,1053.6001)"/>
<use data-text="v" xlink:href="#font_4_41" transform="matrix(24,0,0,-24,190.1629,1053.6001)"/>
<use data-text="e" xlink:href="#font_4_25" transform="matrix(24,0,0,-24,202.1629,1053.6001)"/>
<use data-text="r" xlink:href="#font_4_37" transform="matrix(24,0,0,-24,215.53812,1053.6001)"/>
<use data-text="y" xlink:href="#font_4_42" transform="matrix(24,0,0,-24,223.53731,1053.6001)"/>
<use data-text=" " xlink:href="#font_4_1" transform="matrix(24,0,0,-24,235.53731,1053.6001)"/>
<use data-text="m" xlink:href="#font_4_32" transform="matrix(24,0,0,-24,242.1613,1053.6001)"/>
<use data-text="o" xlink:href="#font_4_34" transform="matrix(24,0,0,-24,262.16053,1053.6001)"/>
<use data-text="d" xlink:href="#font_4_24" transform="matrix(24,0,0,-24,275.5357,1053.6001)"/>
<use data-text="e" xlink:href="#font_4_25" transform="matrix(24,0,0,-24,288.9109,1053.6001)"/>
<path transform="matrix(1,0,0,-1,0,1134)" d="M800.9305 352.525 751.4308 216.3722 757.0697 214.3222 806.5694 350.475ZM746.817 221.2418 749.1251 201.25 763.7337 215.0916Z" fill="#af4a8c"/>
<use data-text="A" xlink:href="#font_4_3" transform="matrix(24,0,0,-24,823.8287,192.47998)"/>
<use data-text="n" xlink:href="#font_4_33" transform="matrix(24,0,0,-24,839.82949,192.47998)"/>
<use data-text="n" xlink:href="#font_4_33" transform="matrix(24,0,0,-24,853.20468,192.47998)"/>
<use data-text="o" xlink:href="#font_4_34" transform="matrix(24,0,0,-24,866.5799,192.47998)"/>
<use data-text="t" xlink:href="#font_4_39" transform="matrix(24,0,0,-24,879.9551,192.47998)"/>
<use data-text="a" xlink:href="#font_4_21" transform="matrix(24,0,0,-24,886.5791,192.47998)"/>
<use data-text="t" xlink:href="#font_4_39" transform="matrix(24,0,0,-24,899.9543,192.47998)"/>
<use data-text="e" xlink:href="#font_4_25" transform="matrix(24,0,0,-24,906.5783,192.47998)"/>
<use data-text="d" xlink:href="#font_4_24" transform="matrix(24,0,0,-24,919.9535,192.47998)"/>
<use data-text=" " xlink:href="#font_4_1" transform="matrix(24,0,0,-24,933.3287,192.47998)"/>
<use data-text="c" xlink:href="#font_4_23" transform="matrix(24,0,0,-24,939.9527,192.47998)"/>
<use data-text="o" xlink:href="#font_4_34" transform="matrix(24,0,0,-24,951.9527,192.47998)"/>
<use data-text="d" xlink:href="#font_4_24" transform="matrix(24,0,0,-24,965.3279,192.47998)"/>
<use data-text="i" xlink:href="#font_4_29" transform="matrix(24,0,0,-24,978.70309,192.47998)"/>
<use data-text="n" xlink:href="#font_4_33" transform="matrix(24,0,0,-24,984.0791,192.47998)"/>
<use data-text="g" xlink:href="#font_4_27" transform="matrix(24,0,0,-24,997.4543,192.47998)"/>
<use data-text=" " xlink:href="#font_4_1" transform="matrix(24,0,0,-24,1010.82949,192.47998)"/>
<use data-text="s" xlink:href="#font_4_38" transform="matrix(24,0,0,-24,1017.4535,192.47998)"/>
<use data-text="e" xlink:href="#font_4_25" transform="matrix(24,0,0,-24,1029.4535,192.47998)"/>
<use data-text="q" xlink:href="#font_4_36" transform="matrix(24,0,0,-24,1042.8286,192.47998)"/>
<use data-text="u" xlink:href="#font_4_40" transform="matrix(24,0,0,-24,1056.2039,192.47998)"/>
<use data-text="e" xlink:href="#font_4_25" transform="matrix(24,0,0,-24,1069.5791,192.47998)"/>
<use data-text="n" xlink:href="#font_4_33" transform="matrix(24,0,0,-24,1082.9542,192.47998)"/>
<use data-text="c" xlink:href="#font_4_23" transform="matrix(24,0,0,-24,1096.3295,192.47998)"/>
<use data-text="e" xlink:href="#font_4_25" transform="matrix(24,0,0,-24,1108.3295,192.47998)"/>
<use data-text="s" xlink:href="#font_4_38" transform="matrix(24,0,0,-24,1121.7046,192.47998)"/>
<use data-text="A" xlink:href="#font_4_3" transform="matrix(24,0,0,-24,826.653,158.64002)"/>
<use data-text="n" xlink:href="#font_4_33" transform="matrix(24,0,0,-24,842.6538,158.64002)"/>
<use data-text="n" xlink:href="#font_4_33" transform="matrix(24,0,0,-24,856.029,158.64002)"/>
<use data-text="o" xlink:href="#font_4_34" transform="matrix(24,0,0,-24,869.40426,158.64002)"/>
<use data-text="t" xlink:href="#font_4_39" transform="matrix(24,0,0,-24,882.7794,158.64002)"/>
<use data-text="a" xlink:href="#font_4_21" transform="matrix(24,0,0,-24,889.40347,158.64002)"/>
<use data-text="t" xlink:href="#font_4_39" transform="matrix(24,0,0,-24,902.7786,158.64002)"/>
<use data-text="e" xlink:href="#font_4_25" transform="matrix(24,0,0,-24,909.40267,158.64002)"/>
<use data-text="d" xlink:href="#font_4_24" transform="matrix(24,0,0,-24,922.77786,158.64002)"/>
<use data-text=" " xlink:href="#font_4_1" transform="matrix(24,0,0,-24,936.153,158.64002)"/>
<use data-text="p" xlink:href="#font_4_35" transform="matrix(24,0,0,-24,942.77706,158.64002)"/>
<use data-text="s" xlink:href="#font_4_38" transform="matrix(24,0,0,-24,956.1522,158.64002)"/>
<use data-text="e" xlink:href="#font_4_25" transform="matrix(24,0,0,-24,968.1522,158.64002)"/>
<use data-text="u" xlink:href="#font_4_40" transform="matrix(24,0,0,-24,981.5274,158.64002)"/>
<use data-text="d" xlink:href="#font_4_24" transform="matrix(24,0,0,-24,994.9026,158.64002)"/>
<use data-text="o" xlink:href="#font_4_34" transform="matrix(24,0,0,-24,1008.27786,158.64002)"/>
<use data-text="g" xlink:href="#font_4_27" transform="matrix(24,0,0,-24,1021.653,158.64002)"/>
<use data-text="e" xlink:href="#font_4_25" transform="matrix(24,0,0,-24,1035.0282,158.64002)"/>
<use data-text="n" xlink:href="#font_4_33" transform="matrix(24,0,0,-24,1048.4035,158.64002)"/>
<use data-text="e" xlink:href="#font_4_25" transform="matrix(24,0,0,-24,1061.7786,158.64002)"/>
<use data-text="s" xlink:href="#font_4_38" transform="matrix(24,0,0,-24,1075.1538,158.64002)"/>
<use data-text="A" xlink:href="#font_4_3" transform="matrix(24,0,0,-24,801.4223,55.680055)"/>
<use data-text="n" xlink:href="#font_4_33" transform="matrix(24,0,0,-24,817.4231,55.680055)"/>
<use data-text="n" xlink:href="#font_4_33" transform="matrix(24,0,0,-24,830.7983,55.680055)"/>
<use data-text="o" xlink:href="#font_4_34" transform="matrix(24,0,0,-24,844.1735,55.680055)"/>
<use data-text="t" xlink:href="#font_4_39" transform="matrix(24,0,0,-24,857.5487,55.680055)"/>
<use data-text="a" xlink:href="#font_4_21" transform="matrix(24,0,0,-24,864.1727,55.680055)"/>
<use data-text="t" xlink:href="#font_4_39" transform="matrix(24,0,0,-24,877.5479,55.680055)"/>
<use data-text="e" xlink:href="#font_4_25" transform="matrix(24,0,0,-24,884.17196,55.680055)"/>
<use data-text="d" xlink:href="#font_4_24" transform="matrix(24,0,0,-24,897.5471,55.680055)"/>
<use data-text=" " xlink:href="#font_4_1" transform="matrix(24,0,0,-24,910.9223,55.680055)"/>
<use data-text="f" xlink:href="#font_4_26" transform="matrix(24,0,0,-24,917.5463,55.680055)"/>
<use data-text="u" xlink:href="#font_4_40" transform="matrix(24,0,0,-24,924.1703,55.680055)"/>
<use data-text="l" xlink:href="#font_4_31" transform="matrix(24,0,0,-24,937.54556,55.680055)"/>
<use data-text="l" xlink:href="#font_4_31" transform="matrix(24,0,0,-24,942.9215,55.680055)"/>
<use data-text=" " xlink:href="#font_4_1" transform="matrix(24,0,0,-24,948.29757,55.680055)"/>
<use data-text="g" xlink:href="#font_4_27" transform="matrix(24,0,0,-24,954.9215,55.680055)"/>
<use data-text="e" xlink:href="#font_4_25" transform="matrix(24,0,0,-24,968.2967,55.680055)"/>
<use data-text="n" xlink:href="#font_4_33" transform="matrix(24,0,0,-24,981.6719,55.680055)"/>
<use data-text="e" xlink:href="#font_4_25" transform="matrix(24,0,0,-24,995.0471,55.680055)"/>
<use data-text=" " xlink:href="#font_4_1" transform="matrix(24,0,0,-24,1008.4223,55.680055)"/>
<use data-text="s" xlink:href="#font_4_38" transform="matrix(24,0,0,-24,1015.04629,55.680055)"/>
<use data-text="e" xlink:href="#font_4_25" transform="matrix(24,0,0,-24,1027.0463,55.680055)"/>
<use data-text="q" xlink:href="#font_4_36" transform="matrix(24,0,0,-24,1040.4215,55.680055)"/>
<use data-text="u" xlink:href="#font_4_40" transform="matrix(24,0,0,-24,1053.7966,55.680055)"/>
<use data-text="e" xlink:href="#font_4_25" transform="matrix(24,0,0,-24,1067.1719,55.680055)"/>
<use data-text="n" xlink:href="#font_4_33" transform="matrix(24,0,0,-24,1080.5471,55.680055)"/>
<use data-text="c" xlink:href="#font_4_23" transform="matrix(24,0,0,-24,1093.9223,55.680055)"/>
<use data-text="e" xlink:href="#font_4_25" transform="matrix(24,0,0,-24,1105.9223,55.680055)"/>
<use data-text="s" xlink:href="#font_4_38" transform="matrix(24,0,0,-24,1119.2975,55.680055)"/>
<path transform="matrix(.00007874016,0,0,.00007874016,801.1915,784.125)" stroke-width="76200" stroke-linecap="butt" stroke-miterlimit="8" stroke-linejoin="miter" fill="none" stroke="#af4a8c" d="M0 0 4059677 1"/>
<path transform="matrix(.00007874016,0,0,.00007874016,1119.375,247.87793)" stroke-width="76200" stroke-linecap="butt" stroke-miterlimit="8" stroke-linejoin="miter" fill="none" stroke="#af4a8c" d="M0 0 1 6846851"/>
<path transform="matrix(.00007874016,0,0,.00007874016,1065,250.50012)" stroke-width="76200" stroke-linecap="butt" stroke-miterlimit="8" stroke-linejoin="miter" fill="none" stroke="#af4a8c" d="M0 0 709309 1"/>
<use data-text="A" xlink:href="#font_4_3" transform="matrix(24,0,0,-24,194.8914,270.24)"/>
<use data-text="l" xlink:href="#font_4_31" transform="matrix(24,0,0,-24,210.89221,270.24)"/>
<use data-text="i" xlink:href="#font_4_29" transform="matrix(24,0,0,-24,216.2682,270.24)"/>
<use data-text="a" xlink:href="#font_4_21" transform="matrix(24,0,0,-24,221.64421,270.24)"/>
<use data-text="s" xlink:href="#font_4_38" transform="matrix(24,0,0,-24,235.01941,270.24)"/>
<use data-text=" " xlink:href="#font_4_1" transform="matrix(24,0,0,-24,247.01941,270.24)"/>
<use data-text="f" xlink:href="#font_4_26" transform="matrix(24,0,0,-24,253.6434,270.24)"/>
<use data-text="i" xlink:href="#font_4_29" transform="matrix(24,0,0,-24,260.2674,270.24)"/>
<use data-text="l" xlink:href="#font_4_31" transform="matrix(24,0,0,-24,265.6434,270.24)"/>
<use data-text="e" xlink:href="#font_4_25" transform="matrix(24,0,0,-24,271.0194,270.24)"/>
<use data-text="G" xlink:href="#font_4_8" transform="matrix(24,0,0,-24,189.1698,207.83997)"/>
<use data-text="e" xlink:href="#font_4_25" transform="matrix(24,0,0,-24,207.7938,207.83997)"/>
<use data-text="n" xlink:href="#font_4_33" transform="matrix(24,0,0,-24,221.169,207.83997)"/>
<use data-text="e" xlink:href="#font_4_25" transform="matrix(24,0,0,-24,234.5442,207.83997)"/>
<use data-text=" " xlink:href="#font_4_1" transform="matrix(24,0,0,-24,247.9194,207.83997)"/>
<use data-text="l" xlink:href="#font_4_31" transform="matrix(24,0,0,-24,254.5434,207.83997)"/>
<use data-text="i" xlink:href="#font_4_29" transform="matrix(24,0,0,-24,259.9194,207.83997)"/>
<use data-text="s" xlink:href="#font_4_38" transform="matrix(24,0,0,-24,265.2954,207.83997)"/>
<use data-text="t" xlink:href="#font_4_39" transform="matrix(24,0,0,-24,277.2954,207.83997)"/>
<path transform="matrix(1,0,0,-1,0,1134)" d="M294.3374 936.1538 311.8892 932.1621 310.5587 926.3115 293.0068 930.3032ZM317.7398 930.8315 335.2917 926.8398 333.9611 920.9892 316.4093 924.9809ZM341.1423 925.5093 358.6941 921.5176 357.3635 915.667 339.8117 919.6587ZM364.5447 920.187 374.1812 917.9954 372.8506 912.1448 363.2141 914.3364ZM372.5865 924.5113 388.1424 911.7437 368.5948 906.9595Z" fill="#bfbfbf"/>
<path transform="matrix(1,0,0,-1,0,1134)" d="M302.0788 867.0579 319.5203 871.5069 318.0373 877.3208 300.5958 872.8717ZM325.3342 872.9899 342.7757 877.439 341.2926 883.2528 323.8511 878.8038ZM348.5895 878.922 366.031 883.371 364.548 889.1849 347.1065 884.7358ZM371.8448 884.854 374.3493 885.4929 372.8663 891.3067 370.3618 890.6679ZM372.9254 878.9376 388.1424 892.1073 368.4764 896.3791Z" fill="#bfbfbf"/>
<use data-text="R" xlink:href="#font_4_16" transform="matrix(24,0,0,-24,817.5762,455.04005)"/>
<use data-text="e" xlink:href="#font_4_25" transform="matrix(24,0,0,-24,834.95217,455.04005)"/>
<use data-text="f" xlink:href="#font_4_26" transform="matrix(24,0,0,-24,848.3274,455.04005)"/>
<use data-text="e" xlink:href="#font_4_25" transform="matrix(24,0,0,-24,854.95138,455.04005)"/>
<use data-text="r" xlink:href="#font_4_37" transform="matrix(24,0,0,-24,868.3266,455.04005)"/>
<use data-text="e" xlink:href="#font_4_25" transform="matrix(24,0,0,-24,876.3258,455.04005)"/>
<use data-text="n" xlink:href="#font_4_33" transform="matrix(24,0,0,-24,889.701,455.04005)"/>
<use data-text="c" xlink:href="#font_4_23" transform="matrix(24,0,0,-24,903.0762,455.04005)"/>
<use data-text="e" xlink:href="#font_4_25" transform="matrix(24,0,0,-24,915.0762,455.04005)"/>
<use data-text=" " xlink:href="#font_4_1" transform="matrix(24,0,0,-24,928.45138,455.04005)"/>
<use data-text="g" xlink:href="#font_4_27" transform="matrix(24,0,0,-24,935.0754,455.04005)"/>
<use data-text="e" xlink:href="#font_4_25" transform="matrix(24,0,0,-24,948.45059,455.04005)"/>
<use data-text="n" xlink:href="#font_4_33" transform="matrix(24,0,0,-24,961.8258,455.04005)"/>
<use data-text="e" xlink:href="#font_4_25" transform="matrix(24,0,0,-24,975.201,455.04005)"/>
<use data-text=" " xlink:href="#font_4_1" transform="matrix(24,0,0,-24,988.5762,455.04005)"/>
<use data-text="s" xlink:href="#font_4_38" transform="matrix(24,0,0,-24,995.2002,455.04005)"/>
<use data-text="e" xlink:href="#font_4_25" transform="matrix(24,0,0,-24,1007.2002,455.04005)"/>
<use data-text="q" xlink:href="#font_4_36" transform="matrix(24,0,0,-24,1020.5754,455.04005)"/>
<use data-text="u" xlink:href="#font_4_40" transform="matrix(24,0,0,-24,1033.9506,455.04005)"/>
<use data-text="e" xlink:href="#font_4_25" transform="matrix(24,0,0,-24,1047.3257,455.04005)"/>
<use data-text="n" xlink:href="#font_4_33" transform="matrix(24,0,0,-24,1060.7009,455.04005)"/>
<use data-text="c" xlink:href="#font_4_23" transform="matrix(24,0,0,-24,1074.0762,455.04005)"/>
<use data-text="e" xlink:href="#font_4_25" transform="matrix(24,0,0,-24,1086.0762,455.04005)"/>
<use data-text="s" xlink:href="#font_4_38" transform="matrix(24,0,0,-24,1099.4513,455.04005)"/>
<path transform="matrix(1,0,0,-1,0,1134)" d="M800.0217 1022.082 756.4331 940.6406 761.7231 937.8093 805.3117 1019.251ZM752.5588 946.1169 752 926 768.4287 937.6231Z" fill="#af4a8c"/>
</g>
</svg>
